<?xml version="1.0" standalone="no"?>
<!DOCTYPE svg PUBLIC "-//W3C//DTD SVG 20010904//EN"
 "http://www.w3.org/TR/2001/REC-SVG-20010904/DTD/svg10.dtd">
<svg version="1.0" xmlns="http://www.w3.org/2000/svg"
 width="1079.000000pt" height="1078.000000pt" viewBox="0 0 1079.000000 1078.000000"
 preserveAspectRatio="xMidYMid meet">

<g transform="translate(0.000000,1078.000000) scale(0.100000,-0.100000)"
fill="#000000" stroke="none">
<path d="M5315 10652 c-34 -31 -82 -75 -108 -97 l-48 -40 205 -3 c113 -2 212
0 221 5 13 8 9 15 -25 44 -23 19 -47 39 -53 44 -55 48 -125 105 -128 105 -2 0
-31 -26 -64 -58z"/>
<path d="M5111 10482 c-8 -3 -192 -181 -478 -463 -65 -64 -128 -122 -140 -128
-13 -6 -23 -19 -23 -29 0 -12 -3 -13 -8 -5 -6 9 -68 13 -232 13 -222 1 -225 1
-251 -22 -75 -66 -231 -210 -281 -260 -32 -32 -63 -58 -68 -58 -6 0 -8 5 -5
10 3 6 -1 10 -9 10 -9 0 -16 -4 -16 -9 0 -5 -17 -12 -37 -16 -21 -4 -51 -13
-68 -20 -90 -40 -125 -55 -130 -55 -4 0 -21 -6 -38 -14 -88 -40 -127 -56 -135
-56 -4 0 -17 -8 -28 -17 -29 -27 -77 -41 -104 -31 -17 6 -26 5 -32 -6 -4 -8
-43 -32 -86 -53 -42 -21 -79 -40 -82 -44 -3 -3 -20 -11 -37 -18 -18 -8 -33
-17 -33 -22 0 -5 -4 -9 -10 -9 -10 0 -108 -66 -125 -84 -12 -13 -101 -76 -108
-76 -9 0 -75 66 -153 154 -122 138 -159 176 -171 176 -6 0 -23 14 -36 32 l-25
32 -48 -40 c-27 -21 -113 -99 -192 -172 -79 -73 -147 -130 -152 -127 -15 9
-12 -23 6 -56 15 -29 14 -31 -11 -51 -19 -15 -26 -27 -22 -45 3 -15 0 -22 -7
-20 -13 5 -66 -30 -66 -43 0 -16 122 -140 131 -134 5 3 9 -2 9 -10 0 -8 8 -21
19 -28 10 -7 37 -30 61 -52 39 -35 42 -41 30 -59 -9 -16 -10 -22 -1 -25 6 -2
24 -14 39 -27 21 -18 32 -21 46 -13 9 5 20 7 23 4 4 -3 1 -6 -5 -6 -16 0 -142
-159 -159 -200 -7 -19 -18 -43 -24 -53 -6 -11 -9 -20 -7 -20 2 -1 12 -7 23
-14 11 -7 45 -25 75 -41 69 -37 177 -102 169 -102 -10 0 -241 120 -257 133
-11 8 -16 7 -24 -6 -5 -9 -35 -50 -67 -90 -31 -39 -86 -110 -122 -156 l-65
-85 -94 -17 c-105 -20 -152 -34 -350 -107 -213 -78 -220 -82 -220 -104 0 -30
19 -58 39 -58 10 0 24 -7 31 -15 10 -12 9 -15 -8 -15 -27 0 -44 -23 -45 -62
-2 -32 1 -34 88 -76 50 -24 91 -47 93 -52 2 -5 33 -19 69 -31 36 -12 77 -28
92 -35 14 -8 36 -14 49 -14 29 0 26 -13 -27 -119 -37 -73 -38 -73 -102 -96
-67 -25 -314 -136 -325 -148 -4 -4 21 -33 56 -64 143 -132 182 -172 178 -188
-3 -16 -109 -62 -248 -107 -68 -22 -96 -38 -67 -38 18 0 247 -81 314 -111 23
-11 47 -19 54 -19 7 0 10 -3 6 -6 -3 -4 -19 -2 -35 4 -16 5 -35 6 -43 2 -8 -5
-23 -2 -38 9 -30 20 -202 87 -248 96 -30 6 -32 5 -51 -48 -12 -30 -28 -79 -37
-108 -9 -30 -21 -63 -26 -74 -17 -40 -41 -286 -58 -592 -1 -7 -8 -13 -16 -13
-9 0 -18 -7 -21 -15 -4 -8 -14 -15 -24 -15 -16 0 -17 -5 -10 -32 5 -18 12 -58
15 -88 4 -30 11 -59 15 -65 4 -5 17 -55 30 -110 25 -111 74 -289 97 -350 15
-40 18 -48 46 -120 24 -60 36 -112 42 -190 15 -188 28 -275 44 -288 30 -25
101 -47 155 -47 60 0 55 8 76 -117 7 -42 20 -67 63 -121 33 -41 56 -81 60
-102 3 -19 9 -48 13 -63 4 -19 2 -33 -8 -45 -21 -23 -28 -60 -14 -66 8 -3 8
-5 -1 -5 -6 -1 -9 -9 -6 -20 4 -15 -24 -38 -144 -116 -81 -54 -151 -101 -156
-104 -4 -4 23 -32 60 -62 38 -30 77 -62 88 -72 34 -31 193 -141 242 -168 25
-14 51 -34 57 -45 6 -10 37 -60 71 -111 73 -111 130 -155 214 -163 49 -4 55
-8 62 -33 7 -27 134 -207 183 -261 15 -15 25 -30 23 -32 -2 -2 -19 1 -38 6
-31 9 -39 6 -99 -35 -81 -56 -153 -122 -146 -134 3 -5 53 -12 111 -16 l105 -7
16 -56 c58 -202 53 -192 110 -228 29 -19 56 -34 59 -34 3 0 34 -23 68 -50 67
-54 71 -55 160 -25 37 13 39 12 90 -28 64 -50 68 -56 56 -79 -10 -18 10 -42
75 -88 20 -14 57 -46 118 -102 15 -14 32 -28 36 -30 18 -7 71 -85 74 -108 l3
-25 206 -5 205 -5 43 -37 c24 -20 50 -46 58 -57 20 -30 81 -69 218 -141 118
-62 321 -163 360 -180 11 -5 64 -29 117 -54 54 -25 102 -46 107 -46 5 0 16 -9
24 -21 8 -11 34 -26 58 -34 41 -12 100 -36 174 -70 46 -22 136 -53 175 -60 44
-9 198 -80 223 -103 11 -9 26 -31 33 -48 12 -28 19 -32 66 -37 29 -4 80 -7
113 -7 33 0 91 -3 128 -7 55 -5 67 -9 65 -22 -2 -9 -13 -17 -25 -19 -11 -2
-29 -12 -38 -22 -16 -18 -16 -27 -1 -145 8 -69 20 -135 26 -146 6 -10 30 -28
53 -39 41 -19 148 -134 222 -236 33 -47 65 -64 117 -64 50 0 79 20 136 94 89
118 166 198 210 218 30 14 44 28 48 47 3 14 10 37 14 51 5 14 12 46 15 72 3
27 8 68 11 93 4 38 3 45 -12 45 -21 0 -68 50 -57 61 4 4 69 11 143 14 218 9
239 13 233 36 -9 31 80 109 153 135 101 37 162 54 188 54 14 0 28 5 32 11 5 9
35 24 159 79 11 5 48 21 83 35 70 28 188 83 327 150 164 79 249 116 315 137
102 31 128 45 145 78 9 17 35 40 63 54 26 14 63 45 82 70 19 25 40 47 46 50 6
2 95 8 198 12 l186 7 30 53 c18 33 50 68 82 92 29 22 71 56 93 77 22 20 59 52
83 72 41 35 42 36 25 55 -17 19 -17 20 2 34 10 8 24 14 29 14 6 0 24 16 40 36
31 39 35 39 122 13 23 -7 47 -9 55 -5 8 3 40 21 72 39 198 111 207 120 221
202 4 22 16 70 27 106 l21 67 86 7 c48 4 105 10 126 13 l40 7 -55 48 c-30 26
-84 67 -121 90 -37 23 -67 45 -68 49 0 4 19 27 43 51 50 50 107 156 107 198 0
24 4 29 24 29 13 0 62 18 109 40 47 22 89 40 94 40 29 0 122 164 123 217 1 12
30 35 85 67 80 47 306 217 313 236 7 18 -224 180 -256 180 -7 0 -11 4 -7 9 3
5 -2 17 -11 25 -10 11 -14 25 -9 44 3 16 1 40 -4 55 -12 31 17 128 55 179 13
18 29 44 35 58 6 14 22 45 34 70 12 25 23 63 24 85 2 42 21 65 54 65 10 0 33
7 50 15 39 18 114 45 145 52 24 6 29 18 11 29 -7 4 -2 16 14 33 28 29 69 150
122 353 39 153 44 208 19 208 -15 0 -16 13 -11 116 4 83 10 121 21 137 9 12
34 49 56 81 l40 59 0 111 c0 61 -5 118 -10 126 -7 11 -1 23 23 48 l31 32 -99
298 c-95 283 -101 297 -126 300 -25 3 -27 8 -39 80 -20 119 -22 122 -74 122
-25 0 -47 4 -50 9 -3 5 -17 9 -31 9 -31 0 -105 31 -105 45 0 5 7 6 16 3 10 -4
14 -1 12 6 -3 7 -29 21 -59 31 -94 33 -91 47 45 185 56 57 102 108 104 115 3
12 -153 87 -308 149 l-75 30 -40 85 c-37 82 -38 86 -20 99 10 8 25 14 32 14
17 0 86 32 98 46 6 6 46 28 90 49 44 20 91 42 104 48 36 18 48 43 33 67 -19
31 -14 64 13 90 17 16 25 33 23 49 -3 22 -18 30 -143 73 -77 27 -160 55 -185
63 -49 14 -244 70 -326 92 -45 12 -55 20 -85 66 -18 28 -49 69 -68 90 -29 32
-33 41 -23 55 7 10 15 23 18 30 4 7 -29 51 -77 103 -46 50 -104 121 -129 157
-41 59 -54 71 -99 92 -27 12 -22 26 14 43 20 9 39 27 44 39 5 13 30 41 55 63
26 22 79 70 119 107 40 37 84 76 100 88 15 12 27 28 27 36 0 27 -44 75 -86 93
-38 17 -41 21 -36 52 2 19 11 42 20 52 14 16 14 19 -4 36 -43 43 -279 241
-286 241 -3 0 -10 -9 -13 -20 -9 -29 -57 -100 -67 -100 -5 0 -6 -5 -3 -10 5
-8 11 -8 20 0 10 9 16 7 24 -9 14 -25 14 -34 1 -26 -16 10 -12 -11 5 -25 12
-10 15 -10 16 1 0 18 21 -29 24 -56 3 -25 -46 -124 -94 -190 -35 -47 -50 -95
-30 -95 8 0 -22 -31 -74 -77 l-25 -21 -19 21 c-30 34 -113 107 -166 145 -26
19 -47 38 -45 43 2 5 99 105 216 223 l213 214 -47 32 -46 31 -91 -98 c-50 -54
-135 -142 -188 -196 l-98 -98 -78 58 c-118 89 -176 124 -323 198 -111 56 -137
65 -152 56 -15 -9 -25 -8 -46 3 -15 8 -43 22 -62 30 -19 8 -69 29 -110 47 -41
17 -158 60 -260 95 -102 35 -176 63 -165 63 11 1 35 -3 53 -8 24 -7 32 -6 32
3 0 6 -69 80 -152 163 l-153 151 -267 -2 c-198 -1 -268 2 -270 11 -8 31 -501
511 -600 583 -34 25 -40 26 -106 18 -54 -6 -92 -19 -164 -56 -51 -27 -106 -60
-122 -75 -24 -23 -111 -77 -122 -77 -2 0 -4 4 -4 8 0 10 152 112 168 112 6 0
12 3 14 8 2 4 33 22 71 41 37 19 67 35 67 35 0 1 -37 0 -82 0 -46 -1 -131 1
-191 5 -59 3 -111 5 -116 3z m238 -626 c-2 -2 -159 -6 -347 -10 -238 -5 -342
-4 -337 4 4 6 121 10 347 10 188 0 339 -2 337 -4z m219 -3 c-21 -2 -55 -2 -75
0 -21 2 -4 4 37 4 41 0 58 -2 38 -4z m99 -147 c-26 -51 -34 -52 -17 -2 9 29
16 37 37 45 1 1 -8 -19 -20 -43z m383 34 c0 -10 -31 -18 -48 -13 -6 3 -10 8
-7 13 6 10 55 10 55 0z m45 0 c3 -5 -1 -10 -10 -10 -9 0 -13 5 -10 10 3 6 8
10 10 10 2 0 7 -4 10 -10z m-1618 -56 c-3 -3 -12 -4 -19 -1 -8 3 -5 6 6 6 11
1 17 -2 13 -5z m-124 -31 c-7 -2 -19 -2 -25 0 -7 3 -2 5 12 5 14 0 19 -2 13
-5z m-60 -10 c-7 -2 -19 -2 -25 0 -7 3 -2 5 12 5 14 0 19 -2 13 -5z m-70 -20
c-7 -2 -19 -2 -25 0 -7 3 -2 5 12 5 14 0 19 -2 13 -5z m-60 -10 c-7 -2 -19 -2
-25 0 -7 3 -2 5 12 5 14 0 19 -2 13 -5z m-110 -30 c-7 -2 -19 -2 -25 0 -7 3
-2 5 12 5 14 0 19 -2 13 -5z m-46 -9 c-3 -3 -12 -4 -19 -1 -8 3 -5 6 6 6 11 1
17 -2 13 -5z m-50 -20 c-3 -3 -12 -4 -19 -1 -8 3 -5 6 6 6 11 1 17 -2 13 -5z
m-44 -11 c-7 -2 -19 -2 -25 0 -7 3 -2 5 12 5 14 0 19 -2 13 -5z m1844 -30
c-20 -2 -52 -2 -70 0 -17 2 0 4 38 4 39 0 53 -2 32 -4z m-1873 -22 c-5 -5 -27
-11 -49 -15 l-40 -6 45 19 c44 18 63 19 44 2z m-321 -18 c-7 -2 -19 -2 -25 0
-7 3 -2 5 12 5 14 0 19 -2 13 -5z m24 -99 c-3 -3 -12 -4 -19 -1 -8 3 -5 6 6 6
11 1 17 -2 13 -5z m-113 -48 c-11 -8 -33 -18 -47 -21 -15 -4 -27 -11 -27 -17
0 -5 -5 -6 -12 -2 -7 4 8 16 38 30 56 26 78 31 48 10z m-1092 -296 l31 -45
-29 27 -29 27 -85 -79 c-47 -44 -89 -79 -94 -80 -5 0 30 36 78 81 47 45 86 86
86 91 0 5 -53 66 -117 134 -65 69 -120 130 -121 137 -6 19 245 -243 280 -293z
m708 253 c0 -5 -46 -37 -102 -73 -56 -36 -160 -107 -231 -158 -71 -51 -137
-97 -147 -102 -23 -12 -32 0 -17 20 13 17 355 246 384 257 10 4 36 19 58 35
41 28 55 33 55 21z m205 -43 c-3 -5 -14 -10 -23 -9 -14 0 -13 2 3 9 27 11 27
11 20 0z m412 -36 c-3 -3 -12 -4 -19 -1 -8 3 -5 6 6 6 11 1 17 -2 13 -5z
m-1707 -87 c25 -28 73 -82 107 -118 60 -62 76 -89 53 -89 -5 0 -10 4 -10 8 0
10 -54 74 -140 165 -66 70 -78 87 -63 87 4 0 28 -24 53 -53z m944 21 c-1 -13
-3 -44 -3 -70 -1 -27 -5 -48 -10 -48 -8 0 -5 102 4 128 7 19 12 14 9 -10z
m-1042 -30 c-7 -7 -12 -8 -12 -2 0 14 12 26 19 19 2 -3 -1 -11 -7 -17z m4011
-75 c-7 -2 -21 -2 -30 0 -10 3 -4 5 12 5 17 0 24 -2 18 -5z m2915 -16 c4 -21
-126 -153 -174 -177 -19 -10 -34 -17 -34 -16 0 0 41 43 90 93 50 51 90 100 90
109 0 20 24 13 28 -9z m-2835 6 c-7 -2 -19 -2 -25 0 -7 3 -2 5 12 5 14 0 19
-2 13 -5z m-3463 -12 c0 -18 -12 -41 -22 -41 -7 0 -162 -125 -198 -160 -46
-44 -70 -62 -65 -47 8 20 262 257 276 257 5 0 9 -4 9 -9z m900 -6 c-7 -8 -17
-15 -23 -15 -6 0 -2 7 9 15 25 19 30 19 14 0z m2661 -78 c1 -31 -1 -60 -4 -64
-4 -3 -7 24 -7 62 0 82 8 83 11 2z m-223 23 c15 0 15 -2 2 -10 -23 -15 -30
-12 -29 13 0 12 3 16 6 10 2 -7 12 -13 21 -13z m-2528 6 c0 -6 -66 -46 -75
-46 -4 0 7 11 26 24 33 23 49 31 49 22z m3117 -32 c-3 -3 -12 -4 -19 -1 -8 3
-5 6 6 6 11 1 17 -2 13 -5z m-4403 -111 c126 -140 120 -132 101 -139 -19 -8
-38 9 -147 128 -52 57 -78 93 -74 103 3 8 10 15 15 15 5 0 52 -48 105 -107z
m4004 52 c-2 -2 -21 1 -43 5 -37 7 -38 8 -9 9 20 1 35 8 40 19 6 15 8 14 12
-6 2 -13 2 -25 0 -27z m2889 7 c-15 -16 -27 -38 -27 -50 0 -25 -22 -29 -39 -8
-9 11 -9 17 1 25 7 5 29 23 48 40 43 36 54 31 17 -7z m-5758 -17 c-35 -25 -68
-45 -73 -45 -13 0 -4 8 61 51 81 54 91 49 12 -6z m2739 28 c-16 -2 -40 -2 -55
0 -16 2 -3 4 27 4 30 0 43 -2 28 -4z m687 -16 c38 -10 54 -22 55 -40 0 -4 -6
-7 -12 -5 -27 5 -67 -12 -62 -27 4 -10 -2 -13 -23 -12 -18 1 -27 -3 -25 -10 1
-7 -2 -13 -8 -13 -5 0 -10 4 -10 10 0 5 -13 7 -30 3 l-31 -6 18 32 c19 33 33
40 33 16 0 -8 5 -15 10 -15 6 0 10 21 10 46 0 40 2 45 18 39 9 -4 35 -12 57
-18z m-415 -7 c0 -5 -2 -10 -4 -10 -3 0 -8 5 -11 10 -3 6 -1 10 4 10 6 0 11
-4 11 -10z m565 0 c3 -5 -1 -10 -10 -10 -9 0 -13 5 -10 10 3 6 8 10 10 10 2 0
7 -4 10 -10z m-632 -7 c-7 -2 -19 -2 -25 0 -7 3 -2 5 12 5 14 0 19 -2 13 -5z
m347 -7 c0 -3 -4 -8 -10 -11 -5 -3 -10 -1 -10 4 0 6 5 11 10 11 6 0 10 -2 10
-4z m346 -11 c25 -19 14 -19 -22 0 -16 8 -22 15 -13 15 8 0 24 -7 35 -15z
m-1346 1 c0 -3 -4 -8 -10 -11 -5 -3 -10 -1 -10 4 0 6 5 11 10 11 6 0 10 -2 10
-4z m60 -6 c0 -5 -9 -10 -19 -10 -11 0 -23 5 -26 10 -4 6 5 10 19 10 14 0 26
-4 26 -10z m1234 -20 c26 -12 34 -19 25 -24 -8 -3 -3 -4 11 -1 30 5 55 -8 46
-24 -8 -12 -72 -5 -92 10 -6 5 -14 6 -17 3 -4 -4 -11 5 -16 20 -12 29 -21 32
-39 14 -9 -9 -12 -9 -12 0 0 7 6 12 13 12 8 0 7 4 -3 10 -22 16 36 1 84 -20z
m-3994 16 c0 -2 -7 -7 -16 -10 -8 -3 -12 -2 -9 4 6 10 25 14 25 6z m2370 -6
c0 -5 -7 -10 -16 -10 -8 0 -12 5 -9 10 3 6 10 10 16 10 5 0 9 -4 9 -10z m238
-404 c3 -289 0 -416 -7 -421 -7 -4 -11 3 -11 19 0 33 -46 241 -64 291 -20 52
-20 95 -1 122 33 47 47 111 56 246 7 117 13 157 22 157 1 0 3 -186 5 -414z
m232 399 c0 -19 -10 -19 -46 0 l-29 15 38 0 c26 0 37 -4 37 -15z m-3721 -38
c23 -27 26 -34 10 -19 -30 26 -54 28 -69 5 -10 -16 -11 -16 -5 2 4 11 10 28
12 38 8 25 14 22 52 -26z m3194 36 c-13 -2 -33 -2 -45 0 -13 2 -3 4 22 4 25 0
35 -2 23 -4z m807 -19 c289 -45 508 -101 740 -191 135 -53 148 -59 262 -127
84 -49 105 -74 77 -92 -11 -6 -9 -35 7 -130 8 -51 -99 -264 -237 -471 -120
-180 -162 -256 -152 -272 5 -8 26 -25 46 -38 l37 -23 27 41 c16 23 100 184
188 357 149 294 163 318 205 347 33 23 49 43 58 73 8 23 18 42 24 42 18 0 240
-161 358 -259 164 -137 392 -366 503 -507 118 -149 232 -323 221 -334 -5 -5
-79 -49 -164 -97 -301 -173 -525 -306 -542 -322 -16 -15 -14 -19 16 -55 l34
-39 273 160 c151 88 306 177 344 198 92 49 125 73 125 91 0 8 -43 77 -95 155
-53 77 -90 137 -83 133 7 -4 0 6 -15 22 -16 16 -36 42 -44 59 -9 16 -40 58
-69 92 -30 33 -54 63 -54 66 0 3 -69 75 -153 161 -84 86 -151 156 -148 156 3
0 -1 5 -9 10 -13 8 -13 10 2 10 10 0 27 -13 39 -30 12 -16 27 -26 32 -23 6 3
7 2 4 -4 -7 -11 85 -113 101 -113 5 0 13 -7 16 -16 3 -8 10 -12 16 -9 5 3 10
0 10 -8 0 -8 8 -21 17 -28 15 -12 16 -12 8 1 -5 8 4 4 19 -10 15 -14 34 -37
42 -52 8 -16 20 -28 27 -28 12 -1 76 -78 113 -137 12 -19 25 -30 28 -24 4 5
13 8 21 4 20 -7 19 4 -6 38 -11 16 -27 29 -35 29 -8 0 -14 4 -14 9 0 5 -20 28
-45 52 -25 24 -45 46 -45 49 0 8 64 35 75 31 5 -1 7 0 3 4 -3 4 3 16 14 27
l21 21 33 -39 c18 -22 33 -42 34 -46 0 -4 6 -13 13 -20 26 -26 97 -120 97
-128 0 -4 17 -25 37 -45 35 -35 36 -38 18 -45 -12 -4 -27 -15 -35 -25 -11 -13
-6 -12 24 5 21 11 39 20 40 18 20 -30 46 -58 46 -49 0 16 -108 180 -141 214
-8 8 -21 25 -29 37 -23 34 -64 85 -72 88 -11 5 -10 22 1 22 5 0 13 -9 16 -20
4 -11 11 -17 17 -14 19 12 137 -119 234 -261 176 -256 250 -378 298 -493 15
-35 46 -105 70 -155 24 -51 54 -119 66 -152 13 -33 26 -69 30 -80 23 -60 68
-204 95 -305 53 -197 60 -234 101 -495 30 -194 44 -616 25 -780 -47 -429 -117
-717 -251 -1040 -23 -55 -46 -113 -52 -130 -20 -53 -149 -298 -191 -360 -89
-133 -178 -254 -238 -326 -35 -42 -105 -129 -156 -195 -153 -200 -514 -543
-733 -700 -30 -21 -59 -42 -65 -47 -129 -100 -393 -251 -590 -337 -27 -12 -63
-28 -80 -35 -324 -144 -591 -221 -880 -256 -44 -5 -118 -14 -165 -21 -47 -6
-202 -14 -345 -17 l-260 -6 270 -8 c161 -4 322 -3 400 2 242 19 363 31 387 40
13 4 29 6 35 4 7 -3 30 1 50 8 21 6 71 13 113 14 60 1 68 0 40 -7 -19 -5 -44
-13 -55 -17 -27 -12 -137 -39 -210 -51 -679 -116 -1094 -107 -1715 38 -163 38
-185 44 -195 52 -5 4 -26 11 -45 15 -19 4 -41 11 -50 16 -18 11 -96 39 -128
46 l-23 6 26 17 c26 17 30 17 94 -2 162 -49 205 -61 351 -100 117 -31 178 -42
250 -44 52 -2 129 -8 170 -13 41 -5 107 -9 145 -9 l70 1 -55 7 c-30 4 -100 12
-154 19 -55 6 -116 15 -135 20 -20 5 -61 12 -91 16 -30 4 -68 11 -85 16 -16 5
-70 18 -120 30 -92 21 -264 78 -435 143 -52 20 -199 88 -326 151 -351 175
-519 294 -862 612 -31 28 -60 49 -66 46 -5 -3 -7 -2 -4 3 2 5 -10 24 -29 42
-18 19 -33 31 -33 28 0 -6 -124 130 -213 233 -27 31 -92 121 -145 201 -53 80
-134 198 -179 263 -148 210 -339 625 -402 872 -6 22 -20 76 -31 120 -12 44
-28 111 -36 148 -7 38 -16 72 -18 76 -13 20 -47 269 -61 446 -15 181 -22 555
-11 573 2 4 9 57 16 117 16 151 44 314 81 475 28 120 42 173 94 350 7 25 22
68 33 95 11 28 33 86 50 130 67 178 138 322 161 328 10 2 56 -11 102 -29 46
-18 90 -33 96 -34 8 0 -8 -38 -37 -92 -28 -51 -64 -123 -82 -160 -17 -38 -35
-68 -40 -68 -5 0 -26 9 -48 20 -62 32 -72 27 -96 -37 -12 -32 -34 -89 -49
-128 -55 -145 -128 -422 -155 -590 -11 -66 -24 -149 -30 -185 -17 -113 -29
-293 -20 -310 7 -10 10 1 10 35 0 28 3 67 6 88 6 36 8 37 53 39 l46 2 -48 3
-48 4 3 42 3 42 63 -4 c40 -2 62 1 62 8 0 6 -15 11 -34 11 -19 0 -46 4 -59 9
l-24 9 13 79 c40 253 120 556 196 738 27 66 53 123 56 127 4 4 27 -2 50 -12
43 -20 44 -20 38 -62 -3 -24 -2 -34 1 -23 3 11 14 40 26 65 11 25 33 73 48
108 16 34 57 110 91 168 35 57 75 125 89 150 18 31 29 42 33 33 3 -8 3 -4 0 9
-3 12 -1 22 4 22 6 0 13 12 17 27 3 15 19 43 34 62 14 20 40 56 56 81 16 25
63 89 105 144 41 54 80 105 85 114 15 22 94 102 102 102 4 0 -3 -10 -15 -22
-11 -13 -33 -42 -49 -65 -15 -23 -40 -51 -55 -63 -16 -12 -28 -27 -28 -34 0
-12 -21 -44 -52 -77 -10 -11 -18 -21 -18 -24 0 -4 -27 -45 -62 -97 -6 -9 -16
-14 -21 -11 -5 3 -6 -4 -2 -17 5 -14 3 -20 -3 -16 -6 3 -20 -7 -31 -23 -25
-35 -27 -48 -4 -30 14 11 13 7 -4 -21 -157 -265 -296 -540 -341 -675 -32 -97
-72 -251 -72 -276 1 -26 0 -29 69 184 38 115 239 548 261 562 6 4 175 -115
350 -248 25 -19 92 -67 150 -108 58 -40 135 -97 171 -126 70 -56 79 -61 79
-40 0 8 12 24 26 38 14 13 41 54 60 90 19 37 58 94 85 129 28 34 49 63 47 65
-2 2 -55 -8 -118 -21 -63 -14 -131 -28 -150 -32 -46 -9 -45 -30 5 -63 73 -50
107 -84 104 -102 -4 -15 -10 -13 -51 15 -69 49 -425 304 -566 407 -68 50 -129
92 -134 93 -6 2 12 39 41 82 28 42 51 79 51 82 0 2 36 55 81 117 183 256 416
504 644 686 39 31 72 58 75 61 3 3 35 29 71 58 64 50 89 62 89 43 0 -5 21 -31
48 -58 49 -51 197 -215 221 -246 8 -10 20 -48 26 -85 7 -37 22 -112 34 -167
12 -55 26 -125 32 -155 28 -143 43 -179 76 -180 15 0 40 25 48 49 4 15 -38
254 -62 341 -6 22 -5 24 10 11 9 -7 31 -39 49 -70 17 -31 51 -84 75 -119 23
-35 43 -65 43 -67 0 -2 10 -19 23 -38 12 -19 38 -59 57 -90 19 -31 38 -56 43
-57 9 0 90 51 98 64 4 5 14 6 23 3 23 -9 20 15 -5 47 -23 30 -20 40 22 61 16
9 29 20 29 26 0 5 -17 36 -39 67 -21 31 -126 233 -234 447 -108 215 -209 405
-225 424 -39 46 -56 35 -50 -33 3 -41 28 -99 111 -268 117 -238 186 -383 236
-498 18 -41 37 -82 42 -90 4 -8 27 -46 49 -84 22 -38 39 -71 36 -73 -5 -5 -75
88 -95 125 -20 37 -198 266 -267 343 -34 39 -67 85 -73 102 -14 46 -44 252
-46 317 -2 82 -3 84 -30 123 l-24 37 36 24 c37 25 219 95 418 159 231 75 444
121 718 155 l68 9 28 -41 c36 -53 57 -107 121 -304 49 -150 51 -164 37 -180
-9 -10 -33 -63 -53 -117 -62 -171 -123 -349 -119 -353 1 -2 20 0 40 4 29 5 40
13 50 38 11 27 74 274 90 350 8 37 20 24 33 -34 5 -25 24 -101 42 -169 28
-103 31 -127 21 -144 -19 -30 -1 -40 56 -29 74 13 95 0 91 -57 l-3 -46 -95 -6
-95 -5 93 -2 92 -2 0 -80 0 -79 -147 -4 -148 -3 174 -2 c142 -2 172 0 158 11
-15 11 -17 37 -8 140 1 13 11 17 49 19 l47 2 -47 3 -48 4 0 50 c0 40 3 49 18
50 9 0 35 1 57 2 l40 2 6 220 c4 121 7 315 8 431 l1 212 32 67 31 67 76 -6
c42 -4 119 -14 171 -22z m427 20 c-3 -3 -12 -4 -19 -1 -8 3 -5 6 6 6 11 1 17
-2 13 -5z m-3258 -37 c-46 -31 -67 -43 -54 -30 22 21 68 53 78 53 5 0 -5 -10
-24 -23z m2231 -20 c0 -18 -7 -59 -15 -92 -9 -32 -18 -85 -22 -118 -3 -34 -9
-53 -14 -46 -10 20 -47 176 -55 238 l-7 51 57 0 56 0 0 -33z m1355 12 c3 6 12
11 18 11 7 0 6 -4 -3 -10 -17 -11 -14 -14 24 -27 20 -6 30 -16 31 -31 1 -12
-4 -22 -11 -22 -8 0 -11 6 -7 17 6 14 1 15 -37 9 -40 -6 -42 -5 -29 11 10 12
10 15 1 9 -7 -4 -19 -2 -27 4 -8 7 -24 9 -37 5 -13 -4 -20 -4 -16 0 4 5 3 14
-4 22 -9 12 -7 13 14 8 15 -4 29 -2 33 5 5 8 12 7 25 -5 12 -11 20 -13 25 -6z
m-3691 -67 c-18 -15 -42 -34 -54 -42 -12 -8 -28 -20 -34 -25 -6 -6 -36 -28
-66 -50 -30 -22 -80 -62 -110 -90 -116 -105 -152 -135 -161 -135 -19 0 210
202 296 261 50 34 104 72 120 85 41 33 47 30 9 -4z m3868 -21 c2 -19 9 -36 17
-39 9 -3 11 1 7 15 -4 11 0 33 9 49 l15 29 1 -25 c1 -14 1 -31 0 -39 -2 -7 1
-11 6 -8 16 10 46 -21 40 -43 -3 -11 0 -20 6 -20 6 0 8 -2 5 -5 -10 -10 -37 7
-43 26 -4 10 -11 19 -16 19 -6 0 -8 -4 -5 -9 8 -12 -63 9 -89 26 -11 7 -15 13
-9 13 5 0 10 9 11 20 1 11 -2 18 -8 15 -5 -4 -9 -2 -9 4 0 11 41 20 52 12 4
-4 8 -21 10 -40z m1942 36 c-2 -7 -19 -21 -37 -31 l-32 -19 34 32 c39 35 43
37 35 18z m-2027 -19 c-3 -8 -6 -5 -6 6 -1 11 2 17 5 13 3 -3 4 -12 1 -19z
m-4752 -16 c-3 -3 -11 0 -18 7 -9 10 -8 11 6 5 10 -3 15 -9 12 -12z m3502
-604 c-1 -117 -2 -24 -2 207 0 231 1 327 2 213 2 -114 2 -303 0 -420z m3148
518 c6 -4 1 -3 -10 3 -28 15 -65 48 -65 57 0 4 15 -5 33 -22 17 -16 37 -33 42
-38z m36 3 c-24 -9 -32 13 -13 34 16 18 17 18 23 -5 3 -15 0 -25 -10 -29z
m-4930 24 c13 -16 12 -17 -3 -4 -10 7 -18 15 -18 17 0 8 8 3 21 -13z m3013 -9
c4 -10 1 -14 -6 -12 -15 5 -23 28 -10 28 5 0 13 -7 16 -16z m224 4 c9 -9 8
-16 -5 -30 -23 -26 -33 -22 -33 12 0 31 17 39 38 18z m-4810 -82 c72 -69 101
-106 85 -106 -5 0 -38 27 -73 61 -36 33 -75 68 -87 76 -13 8 -23 21 -23 28 0
7 -6 16 -12 19 -7 3 -2 3 12 0 14 -3 58 -38 98 -78z m4642 52 c0 -11 -12 -10
-30 2 -12 7 -10 9 8 7 12 0 22 -5 22 -9z m-3981 -41 c-2 -1 -15 -11 -29 -22
l-25 -20 19 23 c11 12 24 22 29 22 6 0 8 -1 6 -3z m937 -23 c-26 -13 -58 -31
-69 -39 -12 -8 -28 -15 -36 -15 -11 0 -9 4 6 15 35 25 117 64 133 64 8 0 -7
-11 -34 -25z m3244 16 c0 -5 -7 -10 -15 -10 -8 0 -15 5 -15 10 0 6 7 10 15 10
8 0 15 -4 15 -10z m57 -47 c-3 -2 -14 0 -24 7 -16 10 -16 11 0 6 9 -3 17 0 18
7 0 8 2 8 6 -1 3 -7 3 -16 0 -19z m-95 3 c10 -7 14 -16 10 -21 -4 -4 4 -4 17
0 16 5 21 4 17 -4 -11 -17 -29 -13 -55 14 -25 26 -18 33 11 11z m95 -71 c15
-13 22 -25 16 -25 -7 0 -13 4 -13 8 0 5 -15 16 -32 25 -20 9 -26 16 -16 16 9
1 30 -10 45 -24z m-3574 0 c4 -8 2 -17 -3 -20 -6 -4 -10 3 -10 14 0 25 6 27
13 6z m242 5 c-3 -5 -11 -10 -16 -10 -6 0 -7 5 -4 10 3 6 11 10 16 10 6 0 7
-4 4 -10z m3866 -40 c9 -9 28 -26 41 -36 30 -23 45 -79 18 -64 -9 5 -23 17
-31 26 -12 16 -12 17 1 10 8 -4 -5 11 -29 34 -25 22 -51 38 -58 36 -9 -4 -11
-1 -7 6 5 7 0 9 -14 6 -18 -5 -20 -3 -12 12 9 17 12 17 42 3 18 -9 40 -24 49
-33z m-3901 21 c0 -4 -15 -12 -32 -17 -27 -8 -34 -16 -38 -44 -4 -24 -8 -31
-14 -22 -10 16 -53 8 -78 -15 -10 -9 -18 -12 -18 -7 0 15 107 94 127 94 10 0
25 5 33 10 19 12 20 12 20 1z m3580 -25 l25 -29 -27 19 c-15 10 -28 25 -28 33
0 8 1 12 3 10 1 -2 13 -17 27 -33z m-3740 20 c0 -2 -7 -7 -16 -10 -8 -3 -12
-2 -9 4 6 10 25 14 25 6z m3601 -27 c13 -11 31 -18 41 -16 10 3 16 1 13 -3 -3
-5 14 -22 37 -39 23 -17 38 -31 32 -31 -5 0 -20 9 -34 20 -14 11 -31 20 -37
20 -7 0 -13 4 -13 9 0 5 -13 14 -30 21 -30 13 -60 40 -43 40 6 0 21 -9 34 -21z
m369 -21 c0 -4 5 -8 11 -8 10 0 69 -41 97 -67 7 -7 39 -33 73 -59 33 -26 58
-51 57 -55 -2 -4 -23 -28 -46 -54 l-44 -46 -47 38 c-26 21 -78 62 -115 92 -51
41 -64 56 -54 63 9 7 8 8 -5 4 -11 -3 -30 3 -47 16 l-29 21 27 30 c67 74 59
70 92 50 17 -9 30 -21 30 -25z m-137 20 c5 -17 -23 -59 -34 -52 -10 6 -12 48
-2 57 11 11 31 8 36 -5z m-3971 -22 c16 -22 16 -25 2 -30 -9 -3 -20 -4 -25 -1
-5 4 -6 -1 -3 -9 3 -9 -2 -17 -15 -21 -12 -3 -27 -13 -35 -21 -13 -12 -15 -12
-13 5 0 11 5 17 11 14 5 -4 7 1 3 10 -6 16 14 41 27 32 3 -3 2 1 -4 7 -18 21
-10 30 30 37 3 0 13 -10 22 -23z m8 -97 c-47 -37 -65 -41 -25 -6 22 20 42 33
45 31 2 -3 -6 -14 -20 -25z m3926 -4 c19 -19 7 -19 -26 0 -20 11 -21 14 -7 15
10 0 25 -7 33 -15z m-4056 -15 c-13 -11 -25 -20 -28 -20 -3 0 3 9 13 20 10 11
23 20 28 20 6 0 0 -9 -13 -20z m404 -2 c3 -7 7 -42 10 -78 l6 -64 -35 58 c-39
65 -40 67 -23 84 16 16 38 15 42 0z m-1264 -22 c0 -2 -8 -10 -17 -17 -16 -13
-17 -12 -4 4 13 16 21 21 21 13z m50 -26 c0 -5 -2 -10 -4 -10 -3 0 -8 5 -11
10 -3 6 -1 10 4 10 6 0 11 -4 11 -10z m-120 -44 c0 -2 -8 -10 -17 -17 -16 -13
-17 -12 -4 4 13 16 21 21 21 13z m5520 -81 c0 -1 -18 -24 -40 -51 -22 -26 -37
-50 -34 -53 2 -3 24 14 47 37 24 23 46 42 49 42 3 0 21 -15 40 -32 19 -18 57
-52 85 -76 29 -24 62 -59 73 -78 25 -39 23 -44 -41 -94 l-37 -30 -128 128
c-71 71 -149 144 -173 164 -49 40 -50 36 28 101 l33 27 49 -41 c27 -22 49 -42
49 -44z m-4730 61 c0 -2 -7 -7 -16 -10 -8 -3 -12 -2 -9 4 6 10 25 14 25 6z
m-852 -40 c-7 -8 -15 -12 -17 -11 -5 6 10 25 20 25 5 0 4 -6 -3 -14z m5330
-26 c23 -21 39 -41 34 -44 -5 -3 -28 15 -52 39 -54 55 -41 59 18 5z m-4611
-19 c14 -7 15 -13 6 -21 -8 -9 -13 -7 -18 9 -3 12 -10 21 -15 21 -5 0 -15 10
-21 23 l-11 22 21 -22 c11 -12 29 -26 38 -32z m-892 29 c3 -5 1 -10 -4 -10 -6
0 -11 5 -11 10 0 6 2 10 4 10 3 0 8 -4 11 -10z m840 -119 c-59 -65 -118 -122
-122 -117 -2 2 13 21 34 42 21 22 53 57 70 78 l33 38 -20 28 c-29 41 -24 44
13 7 l33 -32 -41 -44z m-525 5 c0 -2 -7 -9 -15 -16 -13 -11 -14 -10 -9 4 5 14
24 23 24 12z m-40 -43 c-1 -5 -15 -24 -32 -43 -32 -36 -28 -24 7 23 21 28 25
31 25 20z m2997 -55 c-3 -7 -5 -2 -5 12 0 14 2 19 5 13 2 -7 2 -19 0 -25z
m-3736 -25 c-10 -17 -10 -16 -11 3 0 23 13 41 18 25 2 -6 -1 -18 -7 -28z m662
-18 c-3 -9 -8 -14 -10 -11 -3 3 -2 9 2 15 9 16 15 13 8 -4z m496 -12 c-38 -49
-100 -103 -111 -97 -7 4 -8 3 -4 -4 4 -7 -16 -42 -46 -81 -29 -38 -68 -91 -86
-118 -19 -26 -56 -79 -83 -117 -27 -38 -72 -108 -100 -157 -28 -49 -53 -89
-55 -89 -3 0 -50 21 -105 47 -98 46 -100 47 -79 63 21 15 87 122 112 181 13
30 85 83 74 54 -3 -9 -6 -20 -6 -25 0 -5 -6 -15 -14 -22 -7 -8 -25 -40 -40
-71 -14 -31 -37 -75 -51 -97 -29 -46 -30 -50 -12 -50 8 0 45 49 83 110 76 120
80 123 149 90 22 -10 42 -16 45 -13 7 6 -31 33 -47 33 -7 0 -13 4 -13 9 0 5
-13 14 -30 21 -36 15 -36 17 -7 54 21 26 26 27 57 18 19 -5 44 -13 54 -18 12
-5 17 -4 13 3 -4 6 3 8 18 5 18 -3 31 3 45 19 10 13 19 29 20 34 0 6 -12 -3
-26 -20 l-25 -30 17 32 c10 18 25 32 33 30 9 -1 16 5 16 13 0 8 5 15 10 16 28
2 46 18 42 35 -3 11 -1 16 4 13 5 -3 12 8 15 25 5 23 12 31 28 31 13 0 41 19
66 45 45 46 63 59 39 28z m-1289 -43 c19 -17 40 -30 47 -30 7 0 13 -2 13 -5 0
-6 -71 -117 -80 -125 -3 -3 -11 -16 -18 -30 l-12 -25 6 25 c4 14 12 32 19 40
6 8 21 34 32 57 19 40 19 43 2 48 -10 3 -19 15 -21 27 -6 43 -29 44 -154 4
-66 -21 -128 -42 -139 -47 -11 -5 -57 -22 -103 -39 -46 -16 -93 -35 -105 -41
-21 -12 -21 -12 9 -35 16 -13 24 -24 18 -24 -6 0 -19 9 -28 19 -10 11 -28 21
-40 23 -17 3 -12 8 24 24 54 24 104 45 185 75 33 12 69 25 80 29 11 5 54 18
95 30 41 12 80 23 85 25 28 9 53 1 85 -25z m760 11 c-5 -11 -15 -23 -21 -27
-6 -3 -3 5 6 20 20 30 30 35 15 7z m7030 10 c0 -16 -42 -61 -70 -76 -64 -33
-67 -8 -7 46 39 35 77 50 77 30z m50 -11 c0 -5 -2 -10 -4 -10 -3 0 -8 5 -11
10 -3 6 -1 10 4 10 6 0 11 -4 11 -10z m80 -20 c20 -6 21 -8 5 -8 -11 0 -33 4
-50 8 -27 7 -27 8 -5 8 14 0 36 -4 50 -8z m55 -20 c3 -5 2 -10 -4 -10 -5 0
-13 5 -16 10 -3 6 -2 10 4 10 5 0 13 -4 16 -10z m48 -17 c-7 -2 -19 -2 -25 0
-7 3 -2 5 12 5 14 0 19 -2 13 -5z m-303 -78 c0 -5 -5 -3 -10 5 -5 8 -10 20
-10 25 0 6 5 3 10 -5 5 -8 10 -19 10 -25z m531 -6 c23 -11 39 -23 36 -25 -2
-3 -26 7 -52 21 -26 14 -43 25 -36 25 6 0 30 -9 52 -21z m-486 -58 c-6 -5 -25
10 -25 20 0 5 6 4 14 -3 8 -7 12 -15 11 -17z m-6810 -12 c11 -17 -1 -21 -15
-4 -8 9 -8 15 -2 15 6 0 14 -5 17 -11z m6835 -34 c0 -5 -5 -3 -10 5 -5 8 -10
20 -10 25 0 6 5 3 10 -5 5 -8 10 -19 10 -25z m-7858 -2 c-14 -35 -74 -123 -83
-123 -13 0 -11 9 4 24 6 8 19 24 27 36 8 12 20 28 26 34 5 6 13 19 17 29 3 9
9 17 11 17 3 0 2 -8 -2 -17z m7886 -38 c-3 -3 -9 2 -12 12 -6 14 -5 15 5 6 7
-7 10 -15 7 -18z m-7705 -152 c-7 -2 -19 -2 -25 0 -7 3 -2 5 12 5 14 0 19 -2
13 -5z m-146 -895 c-3 -8 -6 -5 -6 6 -1 11 2 17 5 13 3 -3 4 -12 1 -19z m8493
-294 c-40 -18 -189 -48 -197 -40 -3 2 15 10 38 15 24 6 64 17 89 25 25 8 59
14 75 15 l30 0 -35 -15z m-350 -28 c0 -2 -8 -10 -17 -17 -16 -13 -17 -12 -4 4
13 16 21 21 21 13z m593 -458 c-2 -5 -11 -8 -19 -8 -11 0 -14 16 -13 78 l1 77
18 -70 c9 -38 15 -73 13 -77z m-616 -1894 c-3 -3 -12 -4 -19 -1 -8 3 -5 6 6 6
11 1 17 -2 13 -5z m-656 -67 c-10 -9 -11 -8 -5 6 3 10 9 15 12 12 3 -3 0 -11
-7 -18z m-47 -71 c-16 -25 -32 -45 -37 -46 -4 0 8 22 25 49 41 60 50 58 12 -3z
m-79 -135 c3 -6 -1 -13 -8 -18 -13 -8 -75 -88 -152 -197 -24 -35 -43 -52 -49
-46 -5 5 22 51 72 119 44 60 86 119 92 130 11 22 35 28 45 12z m-213 -275 c16
-12 15 -15 -13 -42 -17 -16 -61 -67 -97 -114 -58 -74 -157 -195 -172 -210 -3
-3 -35 -38 -70 -79 -36 -41 -83 -91 -105 -110 -22 -20 -82 -76 -133 -126 -51
-49 -96 -92 -100 -95 -15 -10 86 98 140 151 31 30 76 83 100 116 24 34 88 116
144 184 55 68 128 160 162 204 112 145 112 146 144 121z m-5977 -866 c-3 -5
-14 -10 -23 -10 -15 0 -15 2 -2 10 20 13 33 13 25 0z m-65 -41 c-27 -21 -71
-47 -55 -32 19 18 68 53 74 53 3 0 -5 -9 -19 -21z m5110 -63 c0 -2 -12 -11
-27 -20 l-28 -17 24 20 c23 21 31 25 31 17z m-105 -76 c-3 -5 -12 -10 -18 -10
-7 0 -6 4 3 10 19 12 23 12 15 0z m-1328 -936 c-3 -3 -12 -4 -19 -1 -8 3 -5 6
6 6 11 1 17 -2 13 -5z m-229 -31 c-16 -2 -40 -2 -55 0 -16 2 -3 4 27 4 30 0
43 -2 28 -4z m447 -223 c-3 -5 -10 -10 -16 -10 -5 0 -9 5 -9 10 0 6 7 10 16
10 8 0 12 -4 9 -10z m-855 -524 c0 -3 -15 -14 -32 -26 l-33 -22 28 26 c27 25
37 31 37 22z m-100 -77 c-48 -42 -109 -83 -115 -77 -3 3 24 24 60 47 35 23 67
46 70 51 4 6 9 10 13 10 4 -1 -9 -15 -28 -31z"/>
<path d="M6512 7670 c-47 -72 -47 -73 -1 -103 22 -15 44 -27 49 -27 4 0 24 28
44 61 l37 62 -27 28 c-41 42 -64 38 -102 -21z"/>
<path d="M5088 7703 c12 -2 30 -2 40 0 9 3 -1 5 -23 4 -22 0 -30 -2 -17 -4z"/>
<path d="M5593 7703 c9 -2 23 -2 30 0 6 3 -1 5 -18 5 -16 0 -22 -2 -12 -5z"/>
<path d="M4948 7683 c6 -2 18 -2 25 0 6 3 1 5 -13 5 -14 0 -19 -2 -12 -5z"/>
<path d="M5693 7683 c9 -2 25 -2 35 0 9 3 1 5 -18 5 -19 0 -27 -2 -17 -5z"/>
<path d="M4878 7673 c6 -2 18 -2 25 0 6 3 1 5 -13 5 -14 0 -19 -2 -12 -5z"/>
<path d="M5773 7673 c9 -2 25 -2 35 0 9 3 1 5 -18 5 -19 0 -27 -2 -17 -5z"/>
<path d="M5923 7643 c9 -2 23 -2 30 0 6 3 -1 5 -18 5 -16 0 -22 -2 -12 -5z"/>
<path d="M4671 7624 c0 -11 3 -14 6 -6 3 7 2 16 -1 19 -3 4 -6 -2 -5 -13z"/>
<path d="M5978 7633 c7 -3 16 -2 19 1 4 3 -2 6 -13 5 -11 0 -14 -3 -6 -6z"/>
<path d="M5028 7613 c6 -2 18 -2 25 0 6 3 1 5 -13 5 -14 0 -19 -2 -12 -5z"/>
<path d="M6040 7610 c14 -4 34 -8 45 -8 16 0 15 2 -5 8 -14 4 -34 8 -45 8 -16
0 -15 -2 5 -8z"/>
<path d="M4948 7603 c12 -2 30 -2 40 0 9 3 -1 5 -23 4 -22 0 -30 -2 -17 -4z"/>
<path d="M5558 7603 c6 -2 18 -2 25 0 6 3 1 5 -13 5 -14 0 -19 -2 -12 -5z"/>
<path d="M4508 7573 c7 -3 16 -2 19 1 4 3 -2 6 -13 5 -11 0 -14 -3 -6 -6z"/>
<path d="M4793 7573 c9 -2 23 -2 30 0 6 3 -1 5 -18 5 -16 0 -22 -2 -12 -5z"/>
<path d="M5718 7573 c6 -2 18 -2 25 0 6 3 1 5 -13 5 -14 0 -19 -2 -12 -5z"/>
<path d="M6158 7573 c6 -2 18 -2 25 0 6 3 1 5 -13 5 -14 0 -19 -2 -12 -5z"/>
<path d="M6208 7563 c7 -3 16 -2 19 1 4 3 -2 6 -13 5 -11 0 -14 -3 -6 -6z"/>
<path d="M6445 7534 c17 -9 38 -23 47 -31 9 -8 22 -13 29 -11 14 5 -46 42 -82
52 -19 5 -18 3 6 -10z"/>
<path d="M5028 7533 c18 -2 45 -2 60 0 15 2 0 4 -33 4 -33 0 -45 -2 -27 -4z"/>
<path d="M5568 7533 c12 -2 32 -2 45 0 12 2 2 4 -23 4 -25 0 -35 -2 -22 -4z"/>
<path d="M5918 7533 c7 -3 16 -2 19 1 4 3 -2 6 -13 5 -11 0 -14 -3 -6 -6z"/>
<path d="M4935 7520 c-19 -8 -19 -9 3 -9 12 -1 22 4 22 9 0 6 -1 10 -2 9 -2 0
-12 -4 -23 -9z"/>
<path d="M4820 7500 c-20 -6 -21 -8 -5 -8 11 -1 38 3 60 7 l40 9 -35 0 c-19 0
-46 -4 -60 -8z"/>
<path d="M5758 7503 c6 -2 18 -2 25 0 6 3 1 5 -13 5 -14 0 -19 -2 -12 -5z"/>
<path d="M6018 7503 c7 -3 16 -2 19 1 4 3 -2 6 -13 5 -11 0 -14 -3 -6 -6z"/>
<path d="M4748 7473 c6 -2 18 -2 25 0 6 3 1 5 -13 5 -14 0 -19 -2 -12 -5z"/>
<path d="M6575 7440 c-3 -5 -1 -10 4 -10 6 0 11 5 11 10 0 6 -2 10 -4 10 -3 0
-8 -4 -11 -10z"/>
<path d="M4618 7433 c6 -2 18 -2 25 0 6 3 1 5 -13 5 -14 0 -19 -2 -12 -5z"/>
<path d="M6028 7433 c6 -2 18 -2 25 0 6 3 1 5 -13 5 -14 0 -19 -2 -12 -5z"/>
<path d="M8290 7410 c-9 -6 -10 -10 -3 -10 6 0 15 5 18 10 8 12 4 12 -15 0z"/>
<path d="M6341 7377 c31 -18 64 -38 73 -46 9 -8 19 -12 22 -9 5 6 -32 32 -94
65 -65 34 -65 27 -1 -10z"/>
<path d="M6590 7404 c0 -8 26 -29 55 -46 11 -6 6 3 -12 20 -31 31 -43 38 -43
26z"/>
<path d="M4508 7393 c7 -3 16 -2 19 1 4 3 -2 6 -13 5 -11 0 -14 -3 -6 -6z"/>
<path d="M6158 7393 c7 -3 16 -2 19 1 4 3 -2 6 -13 5 -11 0 -14 -3 -6 -6z"/>
<path d="M6505 7325 c-22 -35 -44 -64 -50 -64 -5 0 -28 11 -50 24 -22 14 -44
25 -50 25 -11 0 105 -69 118 -70 4 0 7 6 7 13 0 8 13 32 29 54 25 35 48 83 39
83 -2 0 -21 -29 -43 -65z"/>
<path d="M8266 7367 c3 -10 9 -15 12 -12 3 3 0 11 -7 18 -10 9 -11 8 -5 -6z"/>
<path d="M6228 7363 c7 -3 16 -2 19 1 4 3 -2 6 -13 5 -11 0 -14 -3 -6 -6z"/>
<path d="M6557 7329 c7 -7 15 -10 18 -7 3 3 -2 9 -12 12 -14 6 -15 5 -6 -5z"/>
<path d="M4779 7268 c-46 -91 -119 -228 -139 -260 -11 -18 -20 -42 -19 -53 0
-19 1 -19 8 -2 6 17 8 16 18 -6 7 -14 8 -27 3 -29 -5 -2 1 -14 12 -28 l21 -25
-8 25 c-6 22 35 -30 70 -88 18 -31 49 -77 55 -82 3 -3 28 -39 55 -80 27 -41
55 -81 62 -87 6 -7 17 -29 23 -48 6 -19 15 -33 20 -30 4 3 8 -1 7 -8 -1 -48 6
-79 29 -112 14 -21 23 -46 21 -56 -6 -23 58 -48 76 -30 8 8 10 76 8 221 -2
198 -2 210 16 211 10 0 13 3 6 6 -8 3 -13 24 -13 54 l0 49 48 2 47 1 -49 6
c-27 3 -51 12 -54 19 -2 6 0 12 5 12 12 0 3 124 -8 128 -5 2 -9 11 -9 20 0 8
-35 52 -78 96 -42 45 -105 111 -139 149 -35 37 -65 67 -68 67 -2 0 -14 -19
-26 -42z m311 -912 c0 -3 -4 -8 -10 -11 -5 -3 -10 -1 -10 4 0 6 5 11 10 11 6
0 10 -2 10 -4z"/>
<path d="M4242 7276 c-32 -18 -37 -25 -13 -19 11 3 26 11 32 19 13 16 12 16
-19 0z"/>
<path d="M6814 7252 c4 -7 24 -23 45 -36 20 -13 61 -46 91 -72 186 -165 294
-288 408 -462 63 -96 168 -292 156 -292 -4 0 0 -8 8 -17 8 -10 31 -56 50 -103
96 -229 155 -493 164 -734 2 -66 6 -122 9 -124 9 -9 5 -100 -10 -250 -20 -200
-29 -248 -75 -410 -49 -175 -48 -167 -31 -167 16 0 70 201 103 385 19 110 22
159 22 410 0 245 -3 302 -21 405 -34 190 -73 328 -143 505 -12 30 -27 69 -34
86 -6 17 -17 29 -24 26 -6 -2 -12 3 -12 12 0 36 -131 263 -218 376 -100 130
-176 212 -286 309 -104 91 -216 176 -202 153z"/>
<path d="M4165 7230 c-16 -7 -17 -9 -3 -9 9 -1 20 4 23 9 7 11 7 11 -20 0z"/>
<path d="M6510 7223 c8 -4 36 -21 62 -40 27 -18 72 -49 101 -69 157 -109 334
-277 449 -425 61 -79 147 -217 198 -319 12 -25 26 -47 29 -50 10 -7 77 -184
100 -260 23 -77 54 -211 78 -335 26 -134 23 -492 -5 -675 -75 -481 -262 -866
-582 -1194 -195 -200 -336 -311 -560 -443 -174 -102 -426 -208 -547 -229 -21
-3 -60 -12 -88 -19 -130 -34 -282 -50 -465 -50 -114 0 -162 -2 -125 -6 33 -4
106 -7 163 -8 l104 -1 -3 -32 c-1 -18 1 -52 5 -76 5 -28 4 -47 -4 -56 -6 -9
-7 -17 -2 -20 6 -3 13 -37 17 -74 6 -66 5 -74 -35 -168 -22 -54 -45 -108 -50
-119 -32 -68 -81 -204 -86 -237 -4 -21 -8 -37 -11 -35 -2 3 -4 130 -5 283 l-1
279 39 6 c25 4 4 6 -56 6 -52 0 -111 3 -130 5 -19 3 -25 3 -12 1 l22 -4 0
-469 c0 -407 -2 -469 -15 -474 -18 -7 -20 -50 -2 -64 6 -6 44 -12 82 -14 l70
-3 5 180 c5 180 5 180 43 272 20 51 37 97 37 102 0 5 6 13 13 19 9 8 12 -47
12 -271 l0 -282 49 -3 c27 -2 52 0 57 5 10 10 12 839 1 953 -9 101 -6 117 16
123 15 4 15 5 1 6 -37 2 -33 76 5 91 l21 9 -21 0 c-14 1 -24 9 -27 23 -8 30
-3 35 46 43 185 27 367 68 510 115 92 31 317 134 365 169 32 22 46 17 57 -19
4 -14 18 -39 31 -56 13 -17 24 -34 24 -37 0 -4 -24 -22 -52 -42 -29 -19 -48
-35 -42 -35 6 0 28 13 50 30 21 16 44 30 51 30 21 0 26 -40 8 -60 -36 -40
-440 -219 -494 -220 -8 0 -11 -3 -8 -6 12 -13 194 51 333 117 22 10 44 19 48
19 11 0 121 71 124 81 2 5 8 9 13 9 16 0 136 -259 170 -365 52 -163 76 -235
115 -335 20 -52 51 -138 69 -190 26 -76 37 -96 54 -98 11 -2 21 1 21 6 0 8
-23 66 -50 127 -54 118 -137 361 -128 371 3 2 15 -26 27 -63 12 -38 28 -81 35
-98 8 -16 33 -81 57 -143 26 -67 49 -110 55 -108 7 3 52 -29 100 -70 49 -42
97 -80 107 -86 17 -9 18 -7 14 19 -3 15 -9 48 -13 73 -4 25 -9 56 -11 70 -3
14 -6 46 -7 73 -3 42 -9 54 -58 105 -30 31 -77 91 -105 132 -131 197 -368 548
-385 569 -24 31 -23 37 10 56 15 9 19 14 9 11 -58 -18 -62 -17 -74 11 -15 35
-40 78 -72 122 -24 33 -24 35 -6 45 191 111 447 328 596 506 113 133 257 370
328 535 23 55 51 120 61 145 48 112 103 407 121 651 21 279 -17 571 -113 861
-25 77 -114 265 -160 338 -126 202 -201 297 -327 418 -91 87 -252 218 -336
272 -27 18 -62 41 -77 51 -15 11 -33 19 -40 18 -9 0 -8 -3 2 -6z m247 -4475
c-3 -8 -6 -5 -6 6 -1 11 2 17 5 13 3 -3 4 -12 1 -19z"/>
<path d="M8376 7217 c3 -10 9 -15 12 -12 3 3 0 11 -7 18 -10 9 -11 8 -5 -6z"/>
<path d="M8530 7164 c-83 -41 -120 -69 -120 -93 0 -10 -6 -6 -18 11 l-18 27
-49 -40 c-28 -21 -81 -58 -120 -81 -38 -24 -117 -72 -175 -108 -58 -36 -132
-81 -165 -99 -103 -58 -225 -142 -225 -155 0 -20 44 -56 68 -56 24 0 83 31
282 145 255 148 405 238 421 251 21 18 29 18 29 -3 0 -9 11 -39 24 -67 94
-198 119 -254 151 -337 47 -123 102 -332 140 -534 7 -38 23 -122 35 -185 23
-125 35 -212 44 -306 l5 -61 -507 -7 c-279 -4 -510 -11 -513 -14 -3 -4 -3 -49
-1 -99 l4 -93 514 0 514 0 0 50 c0 45 -2 50 -22 51 -22 1 -22 1 2 8 25 7 25 8
23 107 -4 167 -52 540 -93 719 -12 50 -24 106 -27 125 -3 19 -9 40 -13 45 -4
6 -15 44 -25 85 -10 41 -29 101 -42 134 -12 33 -23 68 -23 78 0 32 20 19 41
-24 l20 -43 -6 40 c-4 22 -11 42 -16 43 -15 6 -10 22 6 22 8 0 15 5 15 10 0 6
5 10 12 10 9 0 9 -3 0 -12 -21 -21 -13 -29 12 -12 14 8 22 22 20 29 -4 10 4
13 30 11 37 -3 44 6 26 34 -8 12 -19 10 -72 -18 -69 -35 -83 -38 -92 -19 -4 6
-4 2 -2 -10 6 -34 -9 -28 -27 10 -51 109 -86 187 -97 219 -9 25 -18 34 -28 30
-10 -3 -13 -1 -8 6 3 6 -2 16 -13 22 -18 9 -20 8 -14 -7 6 -17 5 -17 -13 0
-12 11 -15 20 -9 25 6 4 15 16 21 27 5 11 56 44 112 73 94 48 118 72 74 72 -9
0 -51 -16 -92 -36z m227 -1036 c-3 -8 -6 -5 -6 6 -1 11 2 17 5 13 3 -3 4 -12
1 -19z m10 -70 c-3 -7 -5 -2 -5 12 0 14 2 19 5 13 2 -7 2 -19 0 -25z m-894
-695 c-7 -2 -21 -2 -30 0 -10 3 -4 5 12 5 17 0 24 -2 18 -5z"/>
<path d="M8401 7185 c1 -19 18 -51 18 -35 0 8 -4 22 -9 30 -5 8 -9 11 -9 5z"/>
<path d="M8645 7110 c4 -6 11 -8 16 -5 14 9 11 15 -7 15 -8 0 -12 -5 -9 -10z"/>
<path d="M3954 7084 c-18 -14 -18 -15 4 -4 12 6 22 13 22 15 0 8 -5 6 -26 -11z"/>
<path d="M2083 6978 c-28 -45 -83 -162 -83 -175 1 -15 31 32 65 98 41 81 55
93 97 84 l33 -6 -30 20 c-42 29 -51 27 -82 -21z"/>
<path d="M8635 6985 c-23 -10 -25 -13 -10 -14 11 0 31 6 45 14 32 18 5 19 -35
0z"/>
<path d="M2846 6914 c-16 -19 -27 -36 -25 -39 10 -10 157 -103 169 -107 17 -5
61 38 54 55 -6 15 -141 121 -157 124 -7 1 -25 -14 -41 -33z"/>
<path d="M5638 6943 c7 -3 16 -2 19 1 4 3 -2 6 -13 5 -11 0 -14 -3 -6 -6z"/>
<path d="M8720 6933 c0 -6 8 -17 18 -24 16 -13 16 -13 2 6 -8 11 -16 22 -17
24 -2 2 -3 0 -3 -6z"/>
<path d="M5768 6913 c7 -3 16 -2 19 1 4 3 -2 6 -13 5 -11 0 -14 -3 -6 -6z"/>
<path d="M3730 6879 c0 -5 5 -7 10 -4 6 3 10 8 10 11 0 2 -4 4 -10 4 -5 0 -10
-5 -10 -11z"/>
<path d="M5568 6843 c6 -2 18 -2 25 0 6 3 1 5 -13 5 -14 0 -19 -2 -12 -5z"/>
<path d="M3485 6813 c4 -10 10 -26 12 -35 6 -22 17 -23 33 -3 8 9 8 15 2 15
-6 0 -14 9 -17 20 -3 11 -13 20 -22 20 -10 0 -13 -5 -8 -17z"/>
<path d="M5368 6780 c2 -22 5 -40 7 -40 2 0 5 18 7 40 2 24 -1 40 -7 40 -6 0
-9 -16 -7 -40z"/>
<path d="M6035 6810 c27 -12 43 -12 25 0 -8 5 -22 9 -30 9 -10 0 -8 -3 5 -9z"/>
<path d="M6097 6779 c7 -7 15 -10 18 -7 3 3 -2 9 -12 12 -14 6 -15 5 -6 -5z"/>
<path d="M3620 6758 c-29 -44 -32 -53 -6 -23 22 26 32 45 23 45 -1 0 -9 -10
-17 -22z"/>
<path d="M5648 6773 c7 -3 16 -2 19 1 4 3 -2 6 -13 5 -11 0 -14 -3 -6 -6z"/>
<path d="M5408 6703 c7 -3 16 -2 19 1 4 3 -2 6 -13 5 -11 0 -14 -3 -6 -6z"/>
<path d="M8810 6668 c0 -19 2 -20 10 -8 13 19 13 30 0 30 -5 0 -10 -10 -10
-22z"/>
<path d="M4805 6670 c-3 -5 1 -10 10 -10 9 0 13 5 10 10 -3 6 -8 10 -10 10 -2
0 -7 -4 -10 -10z"/>
<path d="M5568 6673 c6 -2 18 -2 25 0 6 3 1 5 -13 5 -14 0 -19 -2 -12 -5z"/>
<path d="M5700 6640 c14 -4 34 -8 45 -8 16 0 15 2 -5 8 -14 4 -34 8 -45 8 -16
0 -15 -2 5 -8z"/>
<path d="M8826 6641 c-4 -6 -1 -21 6 -33 20 -38 48 -119 62 -188 8 -36 26
-105 39 -155 14 -49 28 -109 31 -132 l6 -42 -55 -6 c-30 -4 -55 -12 -55 -17 0
-5 8 -7 18 -4 9 3 39 7 65 7 34 2 46 6 43 15 -3 7 -10 41 -16 76 -11 59 -18
90 -71 285 -20 77 -58 195 -64 201 -2 2 -6 -1 -9 -7z"/>
<path d="M6050 6625 c0 -8 -4 -15 -8 -15 -5 0 -14 -11 -20 -24 -9 -21 -8 -23
10 -18 14 3 19 1 14 -6 -4 -7 -3 -12 3 -12 10 0 31 31 31 45 0 4 -7 5 -15 1
-12 -4 -14 0 -9 19 3 14 3 25 0 25 -3 0 -6 -7 -6 -15z"/>
<path d="M5800 6608 c14 -6 62 -29 108 -50 45 -21 82 -42 82 -47 0 -5 10 -13
23 -17 30 -9 171 -121 228 -181 67 -70 134 -155 193 -247 67 -103 77 -122 68
-131 -4 -5 -1 -5 6 -1 8 5 16 -3 23 -21 6 -15 16 -35 24 -43 7 -8 23 -33 35
-55 20 -37 21 -38 16 -10 -5 24 -2 33 16 44 13 8 59 37 103 64 96 59 91 55 77
69 -9 9 -12 8 -12 -3 0 -9 -22 -25 -51 -38 -28 -13 -70 -39 -95 -57 -24 -19
-48 -34 -52 -34 -4 0 -27 33 -50 73 -133 234 -265 392 -432 517 -91 69 -112
89 -102 104 3 5 -2 6 -13 3 -10 -4 -35 1 -59 12 -67 31 -109 48 -136 55 l-25
6 25 -12z"/>
<path d="M3390 6589 c-7 -11 -10 -23 -7 -25 2 -2 9 7 15 21 14 30 7 33 -8 4z"/>
<path d="M3486 6573 c-6 -14 -5 -15 5 -6 7 7 10 15 7 18 -3 3 -9 -2 -12 -12z"/>
<path d="M8691 6574 c0 -11 3 -14 6 -6 3 7 2 16 -1 19 -3 4 -6 -2 -5 -13z"/>
<path d="M2066 6549 c-8 -42 0 -50 9 -9 4 17 5 34 2 36 -2 3 -7 -10 -11 -27z"/>
<path d="M3329 6487 c-41 -70 -45 -80 -30 -85 6 -2 11 3 11 11 0 8 14 40 31
72 41 77 33 78 -12 2z"/>
<path d="M3456 6525 c-9 -26 -7 -32 5 -12 6 10 9 21 6 23 -2 3 -7 -2 -11 -11z"/>
<path d="M4567 6524 c3 -7 9 -14 14 -14 14 0 10 17 -5 23 -10 4 -13 1 -9 -9z"/>
<path d="M5177 6493 c18 -2 50 -2 70 0 21 2 7 4 -32 4 -38 0 -55 -2 -38 -4z"/>
<path d="M8721 6484 c0 -11 3 -14 6 -6 3 7 2 16 -1 19 -3 4 -6 -2 -5 -13z"/>
<path d="M2042 6470 c0 -14 2 -19 5 -12 2 6 2 18 0 25 -3 6 -5 1 -5 -13z"/>
<path d="M4140 6475 c-7 -9 -8 -15 -2 -15 5 0 12 7 16 15 3 8 4 15 2 15 -2 0
-9 -7 -16 -15z"/>
<path d="M5133 6453 c4 -6 71 -13 154 -15 142 -5 311 -35 337 -59 6 -5 16 -9
23 -9 42 0 205 -98 283 -170 127 -116 168 -160 214 -228 16 -23 30 -42 32 -42
21 0 -98 161 -163 220 -96 87 -188 158 -248 192 -59 32 -244 86 -331 97 -154
18 -308 25 -301 14z"/>
<path d="M2031 6424 c0 -11 3 -14 6 -6 3 7 2 16 -1 19 -3 4 -6 -2 -5 -13z"/>
<path d="M4420 6425 c0 -8 4 -15 10 -15 5 0 7 7 4 15 -4 8 -8 15 -10 15 -2 0
-4 -7 -4 -15z"/>
<path d="M7580 6430 c-8 -5 -10 -10 -5 -10 6 0 17 5 25 10 8 5 11 10 5 10 -5
0 -17 -5 -25 -10z"/>
<path d="M3387 6401 c-4 -17 -3 -21 5 -13 5 5 8 16 6 23 -3 8 -7 3 -11 -10z"/>
<path d="M4385 6400 c-3 -5 -2 -10 4 -10 5 0 13 5 16 10 3 6 2 10 -4 10 -5 0
-13 -4 -16 -10z"/>
<path d="M1938 6387 c24 -7 36 -7 44 1 9 9 1 12 -32 11 l-45 -1 33 -11z"/>
<path d="M8828 6393 c-21 -2 -38 -9 -38 -15 0 -13 80 -2 95 13 5 6 4 8 -5 7
-8 -1 -32 -3 -52 -5z"/>
<path d="M3216 6349 c-20 -41 -20 -65 0 -73 21 -8 38 6 59 50 19 40 19 40 -16
49 -23 6 -29 2 -43 -26z m42 -1 c-2 -6 -10 -14 -16 -16 -7 -2 -10 2 -6 12 7
18 28 22 22 4z"/>
<path d="M4276 6298 c-36 -40 -66 -76 -66 -82 0 -5 19 13 43 40 23 26 57 63
76 81 19 18 29 33 23 33 -6 0 -40 -32 -76 -72z"/>
<path d="M2001 6344 c0 -11 3 -14 6 -6 3 7 2 16 -1 19 -3 4 -6 -2 -5 -13z"/>
<path d="M3331 6288 c-90 -197 -146 -417 -155 -613 l-5 -110 13 105 c34 264
77 432 155 604 18 37 30 73 29 78 -2 5 -18 -24 -37 -64z"/>
<path d="M7435 6340 c3 -5 8 -10 11 -10 2 0 4 5 4 10 0 6 -5 10 -11 10 -5 0
-7 -4 -4 -10z"/>
<path d="M5571 6308 c1 -24 3 -27 6 -10 2 12 9 22 14 22 5 0 9 5 9 10 0 6 -7
10 -15 10 -11 0 -15 -10 -14 -32z"/>
<path d="M6600 6331 c0 -6 4 -13 10 -16 6 -3 7 1 4 9 -7 18 -14 21 -14 7z"/>
<path d="M6640 6270 c6 -11 13 -20 16 -20 2 0 0 9 -6 20 -6 11 -13 20 -16 20
-2 0 0 -9 6 -20z"/>
<path d="M8792 6250 c0 -14 2 -19 5 -12 2 6 2 18 0 25 -3 6 -5 1 -5 -13z"/>
<path d="M1971 6244 c0 -11 3 -14 6 -6 3 7 2 16 -1 19 -3 4 -6 -2 -5 -13z"/>
<path d="M2022 6208 c-6 -24 -13 -68 -16 -98 -6 -59 -4 -55 21 58 17 77 13
112 -5 40z"/>
<path d="M6670 6225 c0 -5 5 -17 10 -25 5 -8 10 -10 10 -5 0 6 -5 17 -10 25
-5 8 -10 11 -10 5z"/>
<path d="M5270 6213 c0 -5 23 -9 51 -11 33 -2 48 1 44 8 -7 11 -95 14 -95 3z"/>
<path d="M5110 6200 c0 -5 20 -10 45 -10 25 0 45 5 45 10 0 6 -20 10 -45 10
-25 0 -45 -4 -45 -10z"/>
<path d="M3181 6188 c0 -9 -4 -25 -7 -35 -5 -17 -5 -17 6 0 6 10 9 25 7 35 -4
15 -5 15 -6 0z"/>
<path d="M5567 6173 c5 -12 2 -15 -8 -11 -9 4 -19 -4 -26 -19 -10 -21 -9 -24
5 -21 9 1 28 -5 42 -15 13 -9 30 -17 37 -17 13 0 18 -22 7 -33 -4 -3 -29 3
-58 13 -78 30 -89 23 -18 -11 64 -31 70 -37 51 -56 -8 -8 -20 -7 -43 7 -18 9
-57 25 -88 34 -70 20 -310 33 -341 18 -12 -5 -60 -27 -107 -48 -47 -22 -90
-43 -96 -49 -6 -5 -22 -17 -34 -25 -40 -27 -124 -120 -162 -180 -20 -32 -54
-108 -74 -169 -57 -173 -75 -135 -30 64 l7 30 -14 -30 c-7 -16 -21 -65 -31
-107 -12 -52 -23 -78 -32 -78 -33 0 -84 31 -123 73 -23 25 -50 47 -61 50 -11
3 -18 2 -15 -2 5 -9 -15 -19 -100 -50 -33 -13 -93 -36 -132 -52 -97 -39 -103
-38 -105 14 l-1 42 -6 -45 c-6 -42 -8 -45 -38 -48 l-32 -3 -3 63 -3 63 -9 -62
c-10 -74 -16 -76 -91 -35 -38 20 -51 34 -56 57 -5 23 -7 25 -8 8 0 -13 -4 -23
-8 -23 -9 0 -164 90 -185 108 -15 12 -36 4 -187 -71 -164 -82 -173 -86 -233
-84 l-63 2 -6 40 -6 40 -2 -42 c-1 -38 -4 -43 -24 -43 -13 0 -26 2 -28 5 -7 6
19 301 31 358 11 53 13 104 4 94 -10 -9 -42 -238 -50 -350 l-7 -105 -256 -6
c-141 -4 -357 -14 -480 -22 -123 -8 -226 -12 -229 -9 -3 3 4 5 15 5 33 0 45
22 27 49 -15 21 -106 71 -130 71 -18 0 -21 -7 -28 -72 l-7 -58 43 -2 43 -1
-45 -6 c-42 -6 -45 -8 -42 -33 2 -22 -1 -28 -17 -28 -32 0 -50 11 -44 26 4 11
-11 14 -81 14 l-86 0 0 -38 0 -38 88 1 87 0 6 -75 c3 -41 4 -78 2 -82 -2 -5
-44 -8 -94 -8 -59 0 -89 -4 -89 -11 0 -8 11 -9 31 -5 17 3 63 6 101 6 l69 0
-4 85 c-3 73 -1 87 15 101 17 16 18 15 18 -39 0 -49 12 -82 22 -60 1 5 35 36
73 69 l70 61 260 -1 260 -1 102 -62 c56 -35 105 -63 110 -63 4 0 17 -7 27 -15
17 -13 -37 -14 -452 -12 l-472 3 0 -52 0 -52 -97 -7 c-54 -4 -101 -9 -104 -10
-13 -8 28 -303 52 -375 7 -21 8 -19 4 10 -2 19 -7 51 -10 71 -5 32 -3 37 17
43 13 3 34 6 48 6 14 0 32 5 40 11 11 7 -3 9 -50 7 l-65 -3 -7 55 c-3 30 -6
78 -7 106 -1 59 6 64 91 64 34 0 50 -5 57 -17 8 -14 10 -15 11 -3 0 13 64 15
521 12 l522 -2 -5 145 -5 145 23 0 c22 0 24 -4 24 -47 0 -97 51 -458 79 -558
5 -16 17 -67 26 -112 10 -46 22 -83 27 -83 12 0 10 19 -6 76 -40 137 -85 447
-88 604 l-3 115 35 0 c32 0 35 -3 37 -30 19 -230 37 -405 44 -425 8 -23 9 -23
4 5 -3 17 -8 126 -11 243 -7 210 -7 212 14 212 23 0 23 1 42 -279 6 -85 12
-156 14 -158 4 -4 -2 297 -8 380 -4 56 4 58 71 19 54 -32 187 -96 224 -107 13
-4 33 -14 44 -21 28 -20 40 -18 140 25 50 22 93 36 96 33 4 -4 12 -43 18 -87
22 -158 29 -166 24 -25 l-5 135 21 -33 c12 -18 21 -37 21 -42 0 -22 22 -8 35
23 14 31 14 31 15 6 0 -44 60 -331 80 -389 23 -65 27 -45 5 26 -19 62 -55 292
-55 351 0 57 18 53 39 -8 13 -40 15 -42 21 -19 7 28 33 37 120 39 l56 1 18
-82 c10 -46 22 -87 26 -93 5 -5 11 -27 15 -48 4 -20 11 -40 16 -42 4 -3 -3 34
-16 82 -14 49 -25 99 -25 113 l0 25 141 0 142 0 27 -80 c33 -98 79 -189 119
-235 44 -51 38 -23 -9 40 -54 72 -100 171 -107 229 -5 41 -3 47 13 48 11 1 29
4 42 8 16 5 22 3 22 -8 0 -27 63 -171 102 -234 46 -73 101 -125 163 -154 37
-18 45 -26 45 -48 0 -15 -3 -31 -7 -35 -4 -3 -39 26 -79 65 -68 67 -72 70 -79
48 -6 -18 -2 -28 21 -46 16 -13 36 -29 44 -37 8 -7 29 -21 46 -31 27 -15 31
-22 24 -44 -15 -49 -33 -82 -40 -70 -5 6 -12 -2 -18 -20 -6 -17 -7 -31 -2 -31
5 0 10 6 13 13 2 6 2 1 0 -13 -3 -14 -9 -26 -14 -28 -5 -2 -9 -11 -10 -20 -1
-10 -4 -7 -8 8 -6 22 -8 20 -25 -25 -10 -28 -24 -57 -31 -65 -7 -8 -16 -26
-19 -40 l-7 -25 20 25 c11 14 23 36 26 49 3 13 13 30 20 38 19 19 19 18 -9
-51 -13 -33 -22 -66 -18 -74 4 -12 -1 -14 -25 -9 -29 6 -32 3 -57 -47 -14 -29
-26 -57 -26 -62 0 -5 -9 -20 -20 -34 -11 -14 -20 -33 -20 -43 0 -11 -9 -21
-19 -24 -11 -3 -17 -11 -15 -18 3 -7 0 -16 -6 -20 -8 -5 -6 -13 6 -26 9 -11
14 -22 10 -26 -4 -4 -11 -1 -16 6 -12 21 -40 5 -40 -23 0 -13 -27 -76 -60
-139 -33 -64 -60 -121 -60 -127 0 -7 15 -1 34 14 19 14 38 26 42 26 4 0 54 28
111 61 57 34 106 59 109 56 15 -15 -194 -155 -274 -182 -20 -7 -38 -18 -40
-24 -8 -24 26 -10 133 54 22 14 47 28 55 31 8 4 49 29 91 56 63 40 82 47 110
43 33 -5 33 -4 7 7 -26 11 -52 51 -41 62 12 12 69 6 131 -14 35 -11 74 -20 85
-19 12 0 0 6 -28 13 -52 13 -153 53 -169 67 -18 16 16 38 62 42 l47 3 -47 2
c-35 2 -48 6 -48 17 0 23 28 46 118 95 99 54 92 65 -10 17 -40 -19 -76 -33
-79 -31 -7 4 20 104 45 169 l15 40 -6 -45 c-3 -25 -12 -55 -19 -67 -8 -12 -14
-24 -14 -27 0 -7 124 44 135 56 7 7 -4 9 -35 4 -26 -4 -39 -3 -32 2 7 5 10 16
6 27 -7 17 -2 17 67 11 41 -4 90 -11 109 -16 19 -5 94 -16 165 -26 168 -21
269 -14 395 26 84 28 257 105 270 121 3 3 19 13 35 22 38 20 134 107 118 107
-7 0 -16 -6 -20 -13 -35 -58 -262 -176 -454 -236 -43 -14 -119 -14 -139 -1
-11 7 2 10 42 10 102 0 294 76 441 174 63 42 187 171 246 257 20 30 59 99 85
154 27 55 53 108 58 118 5 10 6 23 2 29 -4 6 -1 9 7 6 25 -8 21 -36 -19 -115
-71 -139 -106 -195 -168 -270 -59 -68 -56 -76 4 -13 27 28 77 99 112 158 73
124 68 117 76 109 3 -3 -1 -16 -10 -29 -9 -12 -16 -29 -15 -38 0 -9 5 -4 12
10 6 14 14 27 17 30 3 3 16 39 30 80 17 53 51 117 117 218 l93 143 43 -31 c23
-17 59 -44 79 -58 21 -15 38 -29 38 -32 0 -3 -17 -17 -38 -31 -20 -15 -83 -66
-140 -113 -56 -47 -121 -98 -144 -113 -40 -27 -40 -28 -17 -34 13 -4 50 -7 82
-8 31 -1 57 -4 57 -8 0 -3 -20 -41 -45 -84 -25 -43 -45 -83 -45 -89 0 -5 -4
-10 -8 -10 -5 0 -14 -11 -20 -25 -23 -49 -12 -39 32 30 101 159 156 222 156
178 0 -35 -92 -199 -161 -285 -38 -49 -69 -91 -69 -94 0 -3 19 14 41 38 50 52
149 199 191 285 32 63 32 63 75 63 24 0 43 -2 43 -5 0 -25 -152 -269 -233
-373 -27 -35 -47 -66 -44 -68 5 -5 122 141 151 190 12 19 48 80 80 135 55 92
97 134 111 111 3 -5 -10 -41 -30 -81 -19 -39 -35 -76 -35 -83 0 -6 19 25 41
69 23 44 46 85 51 90 6 6 93 9 237 6 186 -3 229 -1 233 10 4 12 -53 14 -340
16 -189 1 -347 5 -350 8 -16 15 25 20 171 20 89 0 244 -4 345 -9 129 -5 182
-5 182 3 0 6 -5 11 -12 11 -6 0 -54 29 -107 64 -143 96 -255 150 -298 143 -31
-5 -33 -4 -21 10 25 31 183 158 246 199 l63 41 -113 99 c-62 54 -138 119 -168
144 -30 25 -59 51 -65 57 -5 7 -38 16 -71 19 -75 8 -223 -4 -203 -16 7 -5 11
-11 9 -12 -72 -54 -258 -220 -316 -281 -91 -96 -84 -76 10 35 38 43 69 90 72
107 4 17 11 34 15 37 14 8 10 34 -5 34 -7 0 -16 -9 -19 -20 -5 -20 -27 -28
-27 -10 0 6 4 10 8 10 12 0 -5 108 -23 147 -8 17 -15 37 -15 45 0 8 -7 23 -15
34 -13 17 -14 17 -15 2 0 -9 4 -19 9 -23 13 -8 43 -144 36 -165 -3 -10 -1 -21
5 -25 8 -5 4 -15 -12 -32 -20 -22 -21 -23 -3 -17 11 4 17 3 12 -2 -4 -4 -24
-9 -43 -10 -29 -1 -33 2 -28 18 3 12 0 18 -10 18 -19 0 -21 16 -3 23 9 4 9 6
-1 6 -7 1 -15 -6 -18 -14 -5 -12 -10 -13 -20 -4 -20 17 -18 -9 5 -61 13 -29
20 -37 24 -26 4 9 17 16 29 16 l23 -1 -25 -19 c-47 -37 -50 -41 -50 -56 0 -9
5 -12 13 -8 6 4 3 -2 -7 -14 l-19 -22 -14 29 c-17 33 -39 42 -89 34 -30 -5
-34 -9 -34 -37 0 -26 -4 -31 -24 -32 -21 -2 -26 5 -35 45 -22 87 -32 109 -87
202 -64 107 -75 122 -67 88 4 -17 -11 -5 -56 44 -35 37 -68 67 -73 67 -10 0
65 -83 120 -133 47 -43 142 -236 142 -288 0 -32 -9 -40 -37 -33 -16 5 -22 17
-26 57 -11 86 -71 191 -161 279 -43 43 -83 78 -87 78 -13 0 -11 16 6 56 11 27
18 33 27 24 46 -39 62 -50 70 -50 5 0 -9 17 -32 39 -48 45 -48 61 6 153 l33
57 -32 18 c-18 11 -51 27 -74 36 -39 15 -42 15 -36 0z m40 -34 c1 -15 -2 -19
-13 -15 -9 3 -20 6 -25 6 -5 0 -9 4 -9 9 0 8 11 14 40 20 3 0 6 -8 7 -20z
m-274 -406 c-13 -2 -33 -2 -45 0 -13 2 -3 4 22 4 25 0 35 -2 23 -4z m-299
-185 c-23 -39 -49 -68 -61 -68 -8 0 3 18 23 40 38 40 51 51 38 28z m1606 7 c0
-3 -17 -29 -39 -58 -44 -60 -69 -103 -52 -93 13 8 14 4 5 -18 -5 -13 -24 -16
-113 -15 -68 0 -99 3 -86 9 11 5 16 9 10 9 -12 1 2 9 122 74 50 26 100 59 113
72 22 23 40 32 40 20z m-606 -97 c4 -17 2 -28 -4 -28 -5 0 -10 14 -10 32 0 36
4 35 14 -4z m61 -26 c-8 -8 -25 10 -25 27 0 30 14 34 22 5 4 -16 6 -30 3 -32z
m-698 11 c36 -24 56 -74 42 -110 -31 -83 -106 -108 -160 -54 -16 16 -29 34
-29 39 0 15 71 28 117 22 34 -5 40 -4 31 7 -13 16 -134 18 -143 3 -11 -18 -25
-10 -25 14 0 28 43 84 74 97 26 10 60 4 93 -18z m-2487 -115 c0 -24 3 -60 6
-80 9 -52 -9 -50 -101 13 -41 28 -99 64 -127 80 l-53 29 138 0 137 0 0 -42z
m3094 -105 c-3 -16 -10 -41 -15 -57 -11 -36 -11 -36 0 -36 5 0 14 15 22 33 7
17 19 42 27 55 l15 23 21 -24 c12 -13 30 -27 41 -31 11 -4 33 -17 48 -30 28
-23 28 -23 13 -61 -18 -43 -13 -62 5 -21 7 14 19 26 27 26 12 0 12 -4 -2 -24
-14 -23 -14 -25 2 -29 11 -3 9 -5 -8 -6 l-25 -1 33 -31 c18 -17 31 -34 28 -37
-4 -3 -17 5 -31 18 -14 13 -25 19 -25 13 0 -5 9 -18 20 -28 28 -25 18 -30 -17
-9 l-28 18 23 -25 c24 -27 30 -48 10 -32 -7 6 -22 13 -33 16 -15 6 -14 1 8
-18 23 -20 25 -26 13 -31 -9 -3 -13 -11 -9 -17 4 -6 -2 -8 -15 -5 -18 5 -20 3
-12 -17 6 -17 5 -27 -6 -35 -7 -7 -14 -20 -14 -29 0 -9 -13 -31 -30 -49 -16
-18 -30 -37 -30 -41 0 -5 -15 -16 -33 -24 -18 -9 -43 -28 -57 -42 -22 -24 -70
-55 -85 -55 -11 0 -5 28 8 33 6 2 8 8 4 13 -4 5 -12 2 -16 -5 -5 -7 -13 -11
-17 -8 -5 3 -15 -2 -23 -10 -12 -13 -11 -14 10 -9 23 7 22 6 -6 -20 -25 -23
-26 -26 -7 -20 13 5 22 3 22 -3 0 -6 -5 -11 -12 -11 -9 0 -9 -3 1 -12 10 -11
15 -9 28 7 13 17 15 17 9 2 -4 -13 -2 -16 7 -11 17 10 131 107 139 119 4 5 9
7 12 4 5 -5 -103 -112 -145 -145 -20 -15 -139 -84 -146 -84 -3 0 -19 -7 -36
-15 -95 -43 -142 -55 -264 -65 -70 -5 -144 -7 -163 -4 -19 3 -84 6 -145 7 -72
1 -96 3 -70 8 27 4 32 7 15 8 -37 3 -128 30 -103 30 11 1 83 -6 160 -15 98
-11 170 -13 248 -8 61 4 116 7 123 5 6 -1 12 3 12 9 0 5 -6 10 -14 10 -10 0
-12 7 -8 22 3 14 2 19 -6 14 -7 -4 -12 -4 -12 1 0 4 -56 7 -124 5 -92 -3 -133
0 -158 11 -18 8 -64 22 -102 31 -63 16 -146 50 -146 61 0 5 120 0 200 -8 30
-3 44 -4 30 -1 -49 10 -140 47 -140 56 0 6 11 7 24 4 14 -3 59 -11 102 -17 62
-8 79 -8 85 3 17 26 8 30 -53 25 -41 -4 -56 -3 -43 3 18 8 17 9 -7 9 -15 1
-48 12 -74 26 -26 14 -54 25 -62 25 -9 0 -13 3 -9 6 3 3 38 -2 79 -11 49 -11
74 -13 76 -6 2 6 33 12 70 12 64 2 63 2 -28 10 -144 12 -182 30 -50 24 109 -6
216 6 234 26 8 8 7 13 -1 16 -25 9 -12 32 25 43 91 29 193 80 185 92 -3 7 -1
8 5 4 12 -7 24 0 73 46 16 14 29 23 29 20 0 -4 9 7 19 23 31 48 77 95 86 87 5
-4 5 1 2 10 -4 11 -2 17 5 15 10 -2 88 120 102 158 2 5 6 7 10 4 3 -3 -1 -25
-9 -49 -23 -64 -18 -71 11 -15 36 72 80 102 68 48z m-1327 -15 c-3 -7 -5 -2
-5 12 0 14 2 19 5 13 2 -7 2 -19 0 -25z m207 -24 c3 -8 2 -12 -4 -9 -6 3 -10
10 -10 16 0 14 7 11 14 -7z m-162 -61 c23 -49 57 -92 120 -156 82 -83 100
-107 80 -107 -15 0 -126 123 -170 188 -35 52 -72 123 -72 138 0 15 13 -5 42
-63z m268 -97 c-26 -78 -50 -109 -50 -65 0 11 4 18 9 15 5 -3 9 4 8 17 0 12 3
30 8 40 5 13 3 16 -7 12 -8 -3 -24 -29 -36 -57 -19 -45 -23 -49 -38 -37 -14
11 -16 27 -11 95 2 45 8 87 12 94 4 7 25 -7 60 -41 42 -41 51 -56 45 -73z
m585 64 c2 -28 9 -58 15 -65 13 -16 -14 -28 -43 -19 -12 4 -17 2 -13 -4 3 -5
-11 -17 -32 -26 -20 -10 -45 -21 -54 -26 -28 -16 -98 -24 -98 -12 0 16 17 24
55 25 19 1 32 3 30 6 -3 2 9 12 25 22 43 27 38 43 -7 23 -56 -25 -84 -28 -93
-13 -6 9 14 24 79 55 49 23 97 53 107 67 10 14 20 24 22 22 2 -2 5 -26 7 -55z
m-855 -35 c0 -5 -5 -3 -10 5 -5 8 -10 20 -10 25 0 6 5 3 10 -5 5 -8 10 -19 10
-25z m1525 -3 c-8 -9 -25 20 -18 31 3 5 10 2 15 -7 6 -10 7 -20 3 -24z m-1531
-38 c3 -8 2 -12 -4 -9 -6 3 -10 10 -10 16 0 14 7 11 14 -7z m113 -91 c12 -13
18 -23 13 -23 -11 0 -100 102 -100 115 0 5 15 -8 32 -30 18 -22 43 -50 55 -62z
m1646 20 c-7 -2 -21 -2 -30 0 -10 3 -4 5 12 5 17 0 24 -2 18 -5z m-327 -183
c-14 -17 -26 -28 -26 -23 0 12 43 64 48 58 2 -2 -7 -18 -22 -35z m-266 -190
c0 -5 -4 -10 -10 -10 -5 0 -10 5 -10 10 0 6 5 10 10 10 6 0 10 -4 10 -10z
m-790 -130 c0 -5 -13 -8 -30 -8 -33 1 -41 14 -12 20 21 5 42 -1 42 -12z m-73
-16 c-3 -3 -12 -4 -19 -1 -8 3 -5 6 6 6 11 1 17 -2 13 -5z m113 2 c0 -11 -19
-15 -25 -6 -3 5 1 10 9 10 9 0 16 -2 16 -4z m65 -16 c18 -8 17 -9 -7 -9 -16
-1 -28 4 -28 9 0 12 8 12 35 0z m62 -16 c-3 -3 -12 -4 -19 -1 -8 3 -5 6 6 6
11 1 17 -2 13 -5z m-249 -41 c-10 -2 -28 -2 -40 0 -13 2 -5 4 17 4 22 1 32 -1
23 -4z m255 -40 c-13 -2 -33 -2 -45 0 -13 2 -3 4 22 4 25 0 35 -2 23 -4z
m-593 -60 c-11 -17 -11 -17 -6 0 3 10 6 24 7 30 0 9 2 9 5 0 3 -7 0 -20 -6
-30z m-46 -94 c-15 -34 -30 -57 -32 -50 -2 6 6 28 18 47 11 20 19 39 16 41 -5
6 17 33 22 28 2 -2 -9 -31 -24 -66z"/>
<path d="M6460 5400 l-25 -21 40 3 c27 2 40 8 40 18 0 23 -29 23 -55 0z"/>
<path d="M6061 5184 c0 -11 3 -14 6 -6 3 7 2 16 -1 19 -3 4 -6 -2 -5 -13z"/>
<path d="M6092 5160 c0 -14 2 -19 5 -12 2 6 2 18 0 25 -3 6 -5 1 -5 -13z"/>
<path d="M6052 5120 c0 -14 2 -19 5 -12 2 6 2 18 0 25 -3 6 -5 1 -5 -13z"/>
<path d="M5886 5105 c-9 -26 -7 -32 5 -12 6 10 9 21 6 23 -2 3 -7 -2 -11 -11z"/>
<path d="M6056 4893 c-6 -14 -5 -15 5 -6 7 7 10 15 7 18 -3 3 -9 -2 -12 -12z"/>
<path d="M6050 4842 c0 -12 19 -26 26 -19 2 2 -2 10 -11 17 -9 8 -15 8 -15 2z"/>
<path d="M5665 4801 c-13 -11 -79 -45 -137 -70 -26 -12 -50 -25 -53 -31 -3 -5
-14 -10 -23 -9 -12 0 -9 3 7 10 48 19 12 19 -40 0 -30 -11 -63 -22 -74 -25
-11 -3 6 -4 39 -2 54 3 56 2 35 -11 -18 -11 -19 -13 -4 -8 11 4 32 11 47 15
15 5 45 17 65 28 21 11 57 28 80 38 24 11 43 22 43 27 0 4 6 7 13 7 6 0 23 9
37 20 l25 20 -25 0 c-15 0 -30 -4 -35 -9z"/>
<path d="M5790 4795 c7 -8 17 -12 22 -9 6 4 5 10 -3 15 -22 14 -33 10 -19 -6z"/>
<path d="M5726 4765 c-28 -21 -7 -42 23 -23 21 13 23 29 5 35 -5 1 -18 -4 -28
-12z"/>
<path d="M6039 4741 c-24 -21 -62 -55 -84 -74 -22 -20 -38 -38 -35 -40 3 -3
28 14 55 38 28 24 62 54 77 67 24 20 44 48 34 48 -1 0 -23 -18 -47 -39z"/>
<path d="M5940 4743 c0 -5 7 -18 15 -29 13 -18 14 -18 8 4 -5 22 -23 41 -23
25z"/>
<path d="M5690 4719 c0 -5 5 -7 10 -4 6 3 10 8 10 11 0 2 -4 4 -10 4 -5 0 -10
-5 -10 -11z"/>
<path d="M5645 4704 c-17 -12 -17 -16 -5 -28 13 -13 18 -13 34 0 11 8 14 14 7
14 -7 0 -10 4 -6 9 10 17 -10 20 -30 5z"/>
<path d="M5910 4699 c0 -5 5 -7 10 -4 6 3 10 8 10 11 0 2 -4 4 -10 4 -5 0 -10
-5 -10 -11z"/>
<path d="M5567 4673 c-3 -5 1 -13 8 -20 10 -10 16 -9 24 1 9 10 8 15 -5 20
-20 8 -22 8 -27 -1z"/>
<path d="M5200 4640 c-11 -7 3 -9 45 -9 48 1 54 3 30 9 -43 11 -58 11 -75 0z"/>
<path d="M5507 4643 c-9 -2 -15 -9 -12 -14 9 -14 22 -11 29 6 3 8 4 14 3 14
-1 -1 -10 -3 -20 -6z"/>
<path d="M5654 4605 c21 -16 32 -13 21 4 -3 6 -14 11 -23 11 -15 -1 -15 -2 2
-15z"/>
<path d="M5310 4601 c-8 -6 -18 -7 -22 -5 -11 7 -10 -18 2 -36 8 -13 10 -12
10 3 0 9 7 17 15 17 8 0 15 4 15 9 0 6 21 12 48 14 l47 3 -50 2 c-27 1 -57 -2
-65 -7z"/>
<path d="M5547 4603 c-17 -3 -27 -9 -24 -16 3 -9 -7 -11 -33 -9 -43 4 -51 -3
-39 -35 8 -21 10 -22 43 -8 20 8 46 15 58 15 13 0 32 9 41 21 10 11 25 18 33
15 9 -3 12 -2 9 5 -4 6 -13 8 -21 5 -8 -3 -14 -1 -14 4 0 10 -3 10 -53 3z"/>
<path d="M5340 4580 c0 -5 6 -10 14 -10 8 0 18 5 21 10 3 6 -3 10 -14 10 -12
0 -21 -4 -21 -10z"/>
<path d="M5775 4560 c-3 -6 1 -7 9 -4 18 7 21 14 7 14 -6 0 -13 -4 -16 -10z"/>
<path d="M5328 4543 c-9 -2 -19 -11 -22 -19 -4 -10 3 -14 27 -13 27 0 29 2 12
9 -16 7 -17 9 -3 9 9 1 20 6 23 11 6 10 -6 11 -37 3z"/>
<path d="M5410 4526 c0 -9 5 -16 10 -16 6 0 10 4 10 9 0 6 -4 13 -10 16 -5 3
-10 -1 -10 -9z"/>
<path d="M5607 4534 c-3 -3 -3 -12 -1 -19 3 -7 -3 -15 -13 -18 -15 -4 -14 -5
4 -6 24 -1 44 20 25 27 -7 2 -10 8 -6 13 6 10 1 12 -9 3z"/>
<path d="M5717 4505 c-43 -18 -80 -34 -82 -34 -3 -1 -22 -1 -42 -1 -52 0 -67
-12 -59 -44 15 -60 53 -56 226 27 47 22 88 40 93 39 13 -3 8 7 -15 28 -12 11
-27 20 -32 20 -6 0 -46 -16 -89 -35z m103 18 c0 -14 -19 -38 -25 -32 -8 8 5
39 16 39 5 0 9 -3 9 -7z"/>
<path d="M5243 4513 c9 -2 23 -2 30 0 6 3 -1 5 -18 5 -16 0 -22 -2 -12 -5z"/>
<path d="M5468 4493 c6 -2 18 -2 25 0 6 3 1 5 -13 5 -14 0 -19 -2 -12 -5z"/>
<path d="M5430 4480 c0 -12 28 -25 36 -17 3 3 -4 10 -15 17 -15 7 -21 7 -21 0z"/>
<path d="M5220 4476 c0 -9 30 -14 35 -6 4 6 -3 10 -14 10 -12 0 -21 -2 -21 -4z"/>
<path d="M5287 4473 c-18 -17 -2 -23 61 -21 37 0 52 3 34 5 -18 2 -30 9 -27
14 7 10 -58 13 -68 2z"/>
<path d="M7511 6174 c0 -11 3 -14 6 -6 3 7 2 16 -1 19 -3 4 -6 -2 -5 -13z"/>
<path d="M5506 6165 c-3 -9 0 -15 9 -15 16 0 20 16 6 24 -5 3 -11 -1 -15 -9z"/>
<path d="M8822 6120 c0 -14 2 -19 5 -12 2 6 2 18 0 25 -3 6 -5 1 -5 -13z"/>
<path d="M6091 6114 c8 -12 38 -55 68 -95 68 -94 128 -219 137 -287 7 -55 12
-60 19 -22 3 13 10 27 17 32 11 6 11 8 0 8 -7 0 -35 46 -63 103 -27 56 -65
123 -84 150 -34 48 -121 150 -94 111z"/>
<path d="M3012 6100 c0 -14 2 -19 5 -12 2 6 2 18 0 25 -3 6 -5 1 -5 -13z"/>
<path d="M4056 6047 c-67 -141 -105 -269 -110 -377 -2 -36 -2 -51 0 -35 8 57
45 210 59 245 7 19 25 64 39 100 14 36 32 82 41 103 26 64 8 41 -29 -36z"/>
<path d="M5318 6113 c6 -2 18 -2 25 0 6 3 1 5 -13 5 -14 0 -19 -2 -12 -5z"/>
<path d="M5130 6100 c-23 -7 -22 -8 10 -8 19 0 44 3 55 8 17 7 15 9 -10 8 -16
0 -41 -4 -55 -8z"/>
<path d="M7541 6094 c0 -11 3 -14 6 -6 3 7 2 16 -1 19 -3 4 -6 -2 -5 -13z"/>
<path d="M1825 6080 c8 -13 75 -13 95 0 11 7 -2 10 -43 10 -36 0 -56 -4 -52
-10z"/>
<path d="M3146 6039 c-4 -28 -5 -53 -3 -56 3 -2 8 19 12 47 4 28 5 53 2 56 -2
3 -7 -19 -11 -47z"/>
<path d="M1931 6054 c0 -11 3 -14 6 -6 3 7 2 16 -1 19 -3 4 -6 -2 -5 -13z"/>
<path d="M3002 6050 c0 -14 2 -19 5 -12 2 6 2 18 0 25 -3 6 -5 1 -5 -13z"/>
<path d="M3081 6054 c0 -11 3 -14 6 -6 3 7 2 16 -1 19 -3 4 -6 -2 -5 -13z"/>
<path d="M3112 6035 c0 -16 2 -22 5 -12 2 9 2 23 0 30 -3 6 -5 -1 -5 -18z"/>
<path d="M5690 6020 c0 -12 86 -90 93 -84 11 11 8 26 -3 19 -10 -6 -67 52 -63
65 1 3 -5 7 -13 7 -7 0 -14 -3 -14 -7z"/>
<path d="M7571 6014 c0 -11 3 -14 6 -6 3 7 2 16 -1 19 -3 4 -6 -2 -5 -13z"/>
<path d="M8991 6014 c0 -11 3 -14 6 -6 3 7 2 16 -1 19 -3 4 -6 -2 -5 -13z"/>
<path d="M3872 6000 c0 -14 2 -19 5 -12 2 6 2 18 0 25 -3 6 -5 1 -5 -13z"/>
<path d="M3071 5994 c0 -11 3 -14 6 -6 3 7 2 16 -1 19 -3 4 -6 -2 -5 -13z"/>
<path d="M2975 5953 c-4 -26 -11 -64 -16 -83 -5 -19 -9 -42 -9 -50 1 -13 2
-13 9 0 11 19 34 170 28 177 -3 3 -8 -17 -12 -44z"/>
<path d="M7582 5970 c0 -14 2 -19 5 -12 2 6 2 18 0 25 -3 6 -5 1 -5 -13z"/>
<path d="M5651 5963 c0 -11 81 -75 86 -69 5 5 -68 75 -79 76 -5 0 -8 -3 -7 -7z"/>
<path d="M3122 5920 c0 -19 2 -27 5 -17 2 9 2 25 0 35 -3 9 -5 1 -5 -18z"/>
<path d="M5888 5900 c-17 -19 -22 -32 -15 -39 6 -6 16 2 28 26 24 46 20 50
-13 13z"/>
<path d="M3841 5905 c-1 -11 -4 -31 -6 -45 l-6 -25 11 25 c6 13 9 33 7 45 -4
19 -4 19 -6 0z"/>
<path d="M6190 5915 c0 -5 5 -17 10 -25 5 -8 10 -10 10 -5 0 6 -5 17 -10 25
-5 8 -10 11 -10 5z"/>
<path d="M7601 5904 c0 -11 3 -14 6 -6 3 7 2 16 -1 19 -3 4 -6 -2 -5 -13z"/>
<path d="M5610 5890 c0 -5 5 -10 11 -10 5 0 7 5 4 10 -3 6 -8 10 -11 10 -2 0
-4 -4 -4 -10z"/>
<path d="M3113 5835 c0 -27 2 -38 4 -22 2 15 2 37 0 50 -2 12 -4 0 -4 -28z"/>
<path d="M5943 5870 c3 -16 21 -14 25 2 3 10 2 10 -6 -1 -7 -9 -11 -10 -15 -2
-4 7 -5 8 -4 1z"/>
<path d="M7612 5850 c0 -19 2 -27 5 -17 2 9 2 25 0 35 -3 9 -5 1 -5 -18z"/>
<path d="M5610 5862 c0 -5 30 -37 66 -70 79 -74 121 -129 154 -202 28 -63 50
-100 50 -83 0 7 -4 14 -9 18 -5 3 -13 20 -16 38 -12 56 -71 139 -159 226 -47
46 -86 79 -86 73z"/>
<path d="M3811 5794 c0 -11 3 -14 6 -6 3 7 2 16 -1 19 -3 4 -6 -2 -5 -13z"/>
<path d="M7622 5780 c0 -19 2 -27 5 -17 2 9 2 25 0 35 -3 9 -5 1 -5 -18z"/>
<path d="M2938 5698 c-2 -57 -1 -110 4 -118 4 -8 8 21 8 65 0 44 3 97 6 118 4
23 3 37 -4 37 -6 0 -12 -41 -14 -102z"/>
<path d="M5810 5788 c0 -9 5 -20 10 -23 13 -8 13 5 0 25 -8 13 -10 13 -10 -2z"/>
<path d="M9026 5792 c-3 -5 -35 -12 -72 -15 -37 -4 -69 -9 -72 -12 -13 -12 9
-13 73 -3 68 11 95 22 83 33 -3 4 -9 2 -12 -3z"/>
<path d="M3802 5740 c0 -19 2 -27 5 -17 2 9 2 25 0 35 -3 9 -5 1 -5 -18z"/>
<path d="M5875 5738 c4 -13 11 -27 16 -33 5 -5 4 5 -2 23 -12 36 -24 44 -14
10z"/>
<path d="M3103 5710 c0 -25 2 -35 4 -22 2 12 2 32 0 45 -2 12 -4 2 -4 -23z"/>
<path d="M6081 5743 c-2 -21 31 -95 38 -86 3 5 29 20 56 33 63 31 59 29 53 35
-3 3 -26 -4 -51 -16 -46 -23 -77 -21 -77 5 0 8 10 17 23 19 15 3 14 4 -5 2
-15 -1 -30 3 -32 9 -3 7 -5 6 -5 -1z"/>
<path d="M4030 5725 c0 -9 6 -12 15 -9 8 4 15 7 15 9 0 2 -7 5 -15 9 -9 3 -15
0 -15 -9z"/>
<path d="M4631 5704 c0 -11 3 -14 6 -6 3 7 2 16 -1 19 -3 4 -6 -2 -5 -13z"/>
<path d="M4450 5695 c7 -9 15 -13 17 -11 7 7 -7 26 -19 26 -6 0 -6 -6 2 -15z"/>
<path d="M7647 5510 c5 -201 -1 -288 -31 -495 -24 -157 -80 -375 -99 -387 -6
-4 -8 -10 -4 -14 17 -17 21 -5 77 204 21 78 55 286 65 395 8 92 5 335 -4 427
-6 49 -7 3 -4 -130z"/>
<path d="M5870 5675 c0 -5 5 -17 10 -25 5 -8 10 -10 10 -5 0 6 -5 17 -10 25
-5 8 -10 11 -10 5z"/>
<path d="M5910 5673 c0 -6 8 -19 18 -31 9 -11 23 -29 30 -39 10 -15 11 -14 1
7 -15 32 -49 76 -49 63z"/>
<path d="M8943 5673 c-24 -2 -43 -8 -43 -12 0 -7 42 -3 130 12 31 5 -27 5 -87
0z"/>
<path d="M6010 5663 c1 -13 39 -79 40 -69 0 18 -24 76 -32 76 -4 0 -8 -3 -8
-7z"/>
<path d="M4022 5620 c0 -19 2 -27 5 -17 2 9 2 25 0 35 -3 9 -5 1 -5 -18z"/>
<path d="M4292 5631 c-8 -4 -5 -11 8 -19 16 -10 20 -10 20 2 0 19 -13 27 -28
17z"/>
<path d="M4351 5624 c0 -11 3 -14 6 -6 3 7 2 16 -1 19 -3 4 -6 -2 -5 -13z"/>
<path d="M4532 5620 c0 -14 2 -19 5 -12 2 6 2 18 0 25 -3 6 -5 1 -5 -13z"/>
<path d="M5976 5627 c3 -10 9 -15 12 -12 3 3 0 11 -7 18 -10 9 -11 8 -5 -6z"/>
<path d="M4385 5620 c3 -5 8 -10 11 -10 2 0 4 5 4 10 0 6 -5 10 -11 10 -5 0
-7 -4 -4 -10z"/>
<path d="M1872 5590 c0 -14 2 -19 5 -12 2 6 2 18 0 25 -3 6 -5 1 -5 -13z"/>
<path d="M4237 5570 c-3 -11 -1 -20 4 -20 5 0 9 9 9 20 0 11 -2 20 -4 20 -2 0
-6 -9 -9 -20z"/>
<path d="M4270 5575 c-7 -8 -8 -15 -2 -15 5 0 15 7 22 15 7 8 8 15 2 15 -5 0
-15 -7 -22 -15z"/>
<path d="M2900 5570 c-9 -6 -10 -10 -3 -10 6 0 15 5 18 10 8 12 4 12 -15 0z"/>
<path d="M8957 5393 c-21 -3 -26 -8 -18 -17 8 -9 1 -17 -27 -32 l-37 -19 35
-2 c19 -2 69 3 110 10 70 12 75 14 75 37 0 23 -4 25 -55 26 -30 1 -68 -1 -83
-3z"/>
<path d="M7242 5363 c-13 -32 -4 -235 12 -293 l15 -55 -7 60 c-4 33 -7 115 -7
183 1 67 -1 122 -2 122 -2 0 -7 -8 -11 -17z"/>
<path d="M7816 5238 c-3 -7 -7 -45 -10 -84 -3 -39 -9 -85 -12 -102 l-6 -32
511 0 c309 0 519 4 530 10 28 14 25 87 -3 96 -20 7 -20 7 2 15 20 8 23 14 20
56 l-3 48 -513 3 c-405 2 -513 0 -516 -10z"/>
<path d="M8940 5154 c36 -7 150 -9 150 -2 0 4 -37 7 -82 7 -46 -1 -76 -3 -68
-5z"/>
<path d="M4530 5131 c0 -11 4 -22 9 -25 4 -3 6 6 3 19 -5 30 -12 33 -12 6z"/>
<path d="M8887 5074 c4 -11 9 -12 16 -5 6 6 39 11 74 11 l63 0 0 -42 c0 -50 6
-47 18 10 l10 42 -94 0 c-81 0 -93 -2 -87 -16z"/>
<path d="M2942 5040 c0 -19 2 -27 5 -17 2 9 2 25 0 35 -3 9 -5 1 -5 -18z"/>
<path d="M4407 5053 c-11 -10 -8 -27 7 -48 13 -18 14 -18 25 4 10 17 10 26 0
37 -13 15 -22 18 -32 7z"/>
<path d="M3811 4974 c0 -11 3 -14 6 -6 3 7 2 16 -1 19 -3 4 -6 -2 -5 -13z"/>
<path d="M8890 4900 c-5 -89 -3 -110 7 -71 6 22 10 23 74 19 l69 -4 -2 61 c-1
56 -2 57 -5 13 l-4 -48 -64 0 -64 0 -3 58 c-3 52 -4 49 -8 -28z"/>
<path d="M4251 4928 c-1 -16 8 -40 38 -108 11 -24 11 -24 5 5 -3 17 -12 44
-19 60 -7 17 -16 37 -18 45 -4 12 -6 11 -6 -2z"/>
<path d="M2972 4880 c0 -19 2 -27 5 -17 2 9 2 25 0 35 -3 9 -5 1 -5 -18z"/>
<path d="M3215 4839 c3 -30 12 -73 20 -95 17 -43 16 -34 -10 86 l-14 65 4 -56z"/>
<path d="M3143 4840 c0 -25 2 -35 4 -22 2 12 2 32 0 45 -2 12 -4 2 -4 -23z"/>
<path d="M3841 4864 c0 -11 3 -14 6 -6 3 7 2 16 -1 19 -3 4 -6 -2 -5 -13z"/>
<path d="M4320 4869 c0 -5 5 -7 10 -4 6 3 10 8 10 11 0 2 -4 4 -10 4 -5 0 -10
-5 -10 -11z"/>
<path d="M3912 4850 c0 -14 2 -19 5 -12 2 6 2 18 0 25 -3 6 -5 1 -5 -13z"/>
<path d="M4360 4861 c0 -6 4 -13 10 -16 6 -3 7 1 4 9 -7 18 -14 21 -14 7z"/>
<path d="M4340 4850 c0 -8 9 -30 20 -47 11 -18 17 -33 14 -33 -3 0 6 -14 20
-31 24 -28 27 -57 5 -44 -5 4 -9 -1 -9 -10 0 -12 7 -10 38 10 20 14 47 29 60
35 12 5 22 15 22 22 0 10 -2 10 -9 -1 -5 -7 -14 -10 -20 -7 -6 4 -11 2 -11 -3
0 -6 -3 -11 -7 -10 -13 0 -56 60 -56 75 0 8 -11 17 -24 20 -13 4 -28 14 -33
23 -8 13 -9 13 -10 1z"/>
<path d="M4590 4852 c0 -12 19 -26 26 -19 2 2 -2 10 -11 17 -9 8 -15 8 -15 2z"/>
<path d="M2981 4824 c0 -11 3 -14 6 -6 3 7 2 16 -1 19 -3 4 -6 -2 -5 -13z"/>
<path d="M9022 4795 c0 -16 2 -22 5 -12 2 9 2 23 0 30 -3 6 -5 -1 -5 -18z"/>
<path d="M4674 4795 c-4 -8 -14 -15 -23 -16 -10 0 -12 -2 -3 -6 7 -3 18 0 26
6 9 7 19 6 35 -6 l23 -16 -17 27 c-20 29 -33 33 -41 11z"/>
<path d="M3872 4780 c0 -14 2 -19 5 -12 2 6 2 18 0 25 -3 6 -5 1 -5 -13z"/>
<path d="M8875 4789 c-4 -6 -5 -12 -2 -15 2 -3 7 2 10 11 7 17 1 20 -8 4z"/>
<path d="M3152 4760 c0 -19 2 -27 5 -17 2 9 2 25 0 35 -3 9 -5 1 -5 -18z"/>
<path d="M3001 4764 c0 -11 3 -14 6 -6 3 7 2 16 -1 19 -3 4 -6 -2 -5 -13z"/>
<path d="M3941 4764 c0 -11 3 -14 6 -6 3 7 2 16 -1 19 -3 4 -6 -2 -5 -13z"/>
<path d="M4271 4749 l-24 -20 26 5 c35 6 34 -10 0 -40 -16 -13 -44 -37 -63
-54 -19 -16 -40 -30 -47 -30 -22 0 -23 17 -2 38 22 25 5 30 -24 8 -16 -13 -16
-16 8 -59 14 -25 65 -85 113 -134 102 -104 277 -263 289 -263 4 0 19 16 33 36
14 19 40 55 58 79 17 24 32 48 32 53 0 5 -12 18 -27 28 -55 36 -225 209 -284
291 -34 45 -62 83 -63 83 0 -1 -12 -10 -25 -21z"/>
<path d="M4346 4745 c9 -14 18 -25 20 -25 2 0 -2 11 -8 25 -6 14 -15 25 -20
25 -5 0 -1 -11 8 -25z"/>
<path d="M4600 4748 c-12 -22 -12 -22 6 -6 10 10 15 20 12 24 -4 3 -12 -5 -18
-18z"/>
<path d="M4011 4750 c0 -8 4 -22 9 -30 12 -18 12 -2 0 25 -6 13 -9 15 -9 5z"/>
<path d="M3012 4720 c0 -14 2 -19 5 -12 2 6 2 18 0 25 -3 6 -5 1 -5 -13z"/>
<path d="M4536 4728 c4 -7 3 -8 -4 -4 -7 4 -17 4 -23 1 -6 -4 1 -13 16 -21 15
-8 31 -12 35 -9 5 3 15 -3 22 -12 7 -10 19 -19 27 -21 7 -2 -4 15 -25 38 -36
37 -64 54 -48 28z"/>
<path d="M6692 4718 c-10 -13 -29 -67 -20 -58 7 7 37 70 33 70 -1 0 -7 -6 -13
-12z"/>
<path d="M8862 4700 c0 -19 2 -27 5 -17 2 9 2 25 0 35 -3 9 -5 1 -5 -18z"/>
<path d="M8996 4673 c-4 -32 -13 -76 -20 -98 -14 -38 -16 -40 -52 -36 -21 1
-48 7 -61 12 -27 10 -30 7 -37 -56 l-5 -50 11 43 c12 45 24 50 97 36 25 -5 30
-10 25 -23 -4 -9 -15 -50 -25 -91 -39 -165 -71 -254 -91 -258 -8 -2 -38 6 -67
17 -44 16 -51 17 -51 4 0 -9 6 -13 15 -10 8 4 17 2 20 -3 3 -4 23 -11 46 -15
36 -6 40 -10 35 -29 -4 -11 -9 -34 -12 -51 -15 -89 87 212 135 396 38 146 60
269 49 269 -3 0 -8 -26 -12 -57z"/>
<path d="M6192 4700 c-7 -11 -8 -20 -3 -20 9 0 24 30 18 36 -1 2 -8 -6 -15
-16z"/>
<path d="M3905 4688 c4 -13 11 -27 16 -33 5 -5 4 5 -2 23 -12 36 -24 44 -14
10z"/>
<path d="M3971 4694 c0 -11 3 -14 6 -6 3 7 2 16 -1 19 -3 4 -6 -2 -5 -13z"/>
<path d="M4800 4685 c13 -14 30 -25 38 -25 7 0 0 11 -16 25 -17 14 -33 25 -38
25 -4 0 3 -11 16 -25z"/>
<path d="M3172 4665 c0 -16 3 -39 8 -50 8 -18 9 -18 8 5 0 14 -4 36 -8 50 -8
24 -8 24 -8 -5z"/>
<path d="M4041 4685 c1 -19 18 -51 18 -35 0 8 -4 22 -9 30 -5 8 -9 11 -9 5z"/>
<path d="M4441 4670 c-9 -5 -4 -7 13 -7 29 0 32 2 13 10 -8 3 -20 2 -26 -3z"/>
<path d="M3264 4628 c8 -46 151 -326 214 -421 28 -44 52 -81 52 -83 0 -2 27
-41 59 -87 77 -109 221 -259 361 -377 62 -52 126 -107 143 -121 l31 -27 -81
-158 c-147 -290 -205 -397 -375 -686 -92 -158 -168 -290 -168 -293 0 -3 -12
-24 -26 -46 -14 -23 -24 -42 -22 -44 2 -1 45 43 95 99 113 123 246 300 386
512 201 303 221 329 255 328 16 -1 53 -13 82 -28 73 -37 76 -32 5 10 -33 20
-68 43 -77 51 -16 15 -17 17 -1 28 9 7 13 17 9 23 -10 17 -4 15 60 -13 31 -14
59 -25 62 -25 3 0 -23 19 -56 41 -58 39 -79 69 -49 69 14 0 129 -48 252 -104
39 -18 84 -36 100 -39 29 -6 29 -6 5 5 -14 6 -45 20 -70 30 -123 52 -279 138
-274 152 2 6 17 54 33 106 81 263 224 610 252 610 5 0 9 7 9 15 0 15 -13 25
-91 75 -105 68 -332 311 -354 379 -3 11 -10 21 -15 21 -13 0 33 -81 85 -149
40 -52 147 -162 254 -258 75 -68 40 -69 -59 -2 -69 46 -92 68 -102 95 -14 39
-22 42 -45 14 -10 -11 -23 -20 -29 -20 -17 0 -94 88 -153 175 l-51 74 22 21
c12 11 30 20 40 20 10 0 18 5 18 11 0 13 -63 4 -91 -14 -24 -15 -24 -28 1 -60
11 -14 31 -44 44 -67 12 -22 53 -72 90 -111 61 -63 71 -70 97 -64 24 6 35 0
81 -48 29 -29 74 -68 101 -86 26 -18 47 -40 47 -50 0 -21 -265 -557 -280 -566
-44 -27 -432 336 -547 512 -21 32 -44 64 -51 72 -49 51 -226 387 -262 495 -14
45 -25 47 -16 4z"/>
<path d="M6355 4632 c-26 -33 -37 -52 -32 -52 7 0 59 71 56 75 -2 2 -13 -9
-24 -23z"/>
<path d="M6638 4619 c-9 -16 -14 -29 -9 -29 8 0 34 50 29 56 -2 1 -11 -11 -20
-27z"/>
<path d="M1791 4624 c0 -11 3 -14 6 -6 3 7 2 16 -1 19 -3 4 -6 -2 -5 -13z"/>
<path d="M3042 4610 c0 -14 2 -19 5 -12 2 6 2 18 0 25 -3 6 -5 1 -5 -13z"/>
<path d="M8852 4610 c0 -14 2 -19 5 -12 2 6 2 18 0 25 -3 6 -5 1 -5 -13z"/>
<path d="M3028 4563 c-19 -5 -25 -23 -8 -23 6 0 10 -6 10 -12 1 -7 7 -26 15
-43 13 -29 13 -29 12 27 -1 32 -4 57 -7 57 -3 -1 -13 -3 -22 -6z"/>
<path d="M4736 4556 c3 -9 11 -16 16 -16 13 0 5 23 -10 28 -7 2 -10 -2 -6 -12z"/>
<path d="M6301 4554 c0 -11 3 -14 6 -6 3 7 2 16 -1 19 -3 4 -6 -2 -5 -13z"/>
<path d="M7580 4558 c14 -5 30 -11 35 -12 31 -8 65 -18 65 -20 0 -23 -69 -158
-148 -291 -118 -198 -106 -180 -201 -304 -222 -288 -444 -501 -661 -635 -25
-15 -35 -25 -23 -21 57 16 268 174 402 300 102 96 268 298 354 430 79 121 75
113 148 237 60 103 77 120 90 95 6 -9 18 -17 27 -17 9 -1 34 -7 54 -14 43 -16
50 -11 85 64 41 87 42 82 -50 127 -85 42 -168 73 -190 72 -7 0 -1 -5 13 -11z"/>
<path d="M3104 4546 c-6 -15 33 -114 73 -186 124 -223 379 -550 560 -719 132
-122 120 -100 -21 41 -73 73 -155 160 -182 193 -27 33 -52 62 -55 65 -36 31
-289 419 -289 444 0 2 -18 35 -39 75 l-40 71 27 15 27 14 -28 1 c-15 0 -30 -6
-33 -14z"/>
<path d="M1873 4533 c-18 -2 -33 -8 -33 -13 0 -10 49 -3 85 11 l20 8 -20 -1
c-11 -1 -35 -3 -52 -5z"/>
<path d="M2761 4530 c-1 -39 13 -90 25 -90 23 0 23 14 -2 60 -12 25 -23 38
-23 30z"/>
<path d="M6575 4529 c-4 -6 -5 -12 -2 -15 2 -3 7 2 10 11 7 17 1 20 -8 4z"/>
<path d="M6338 4518 c23 -23 11 -48 -55 -115 -47 -46 -56 -58 -29 -38 22 15
55 43 73 62 19 18 37 33 40 33 4 0 21 -17 40 -37 18 -21 33 -34 33 -30 0 4 9
3 20 -3 19 -10 20 -10 8 9 -6 11 -23 22 -35 26 -13 3 -28 16 -33 28 -9 23 -56
77 -67 77 -4 0 -2 -5 5 -12z"/>
<path d="M1824 4480 c4 -25 16 -72 27 -105 11 -33 17 -46 14 -30 -3 17 -10 59
-17 95 -13 75 -34 110 -24 40z"/>
<path d="M4070 4509 c0 -5 5 -7 10 -4 6 3 10 8 10 11 0 2 -4 4 -10 4 -5 0 -10
-5 -10 -11z"/>
<path d="M7600 4504 c0 -8 5 -12 10 -9 6 3 10 10 10 16 0 5 -4 9 -10 9 -5 0
-10 -7 -10 -16z"/>
<path d="M7525 4470 c-3 -5 3 -10 15 -10 12 0 18 5 15 10 -3 6 -10 10 -15 10
-5 0 -12 -4 -15 -10z"/>
<path d="M4590 4467 c0 -3 12 -12 26 -22 15 -9 23 -12 20 -6 -7 11 -46 35 -46
28z"/>
<path d="M6230 4427 c-25 -23 -70 -64 -100 -91 -30 -27 -44 -41 -30 -32 58 38
196 167 178 166 -2 0 -23 -20 -48 -43z"/>
<path d="M7556 4425 c-14 -27 -30 -57 -35 -65 -5 -8 -42 -71 -82 -139 -64
-112 -123 -194 -266 -375 -26 -32 -53 -65 -61 -72 -7 -8 -10 -14 -6 -14 10 0
17 8 167 194 97 119 237 328 237 352 0 3 18 37 41 75 22 39 39 75 36 82 -2 7
-16 -10 -31 -38z"/>
<path d="M4129 4422 c5 -10 17 -25 26 -32 13 -11 15 -10 9 6 -9 25 -24 44 -36
44 -5 0 -5 -8 1 -18z"/>
<path d="M8807 4433 c-4 -3 -7 -11 -7 -17 0 -6 5 -5 12 2 6 6 9 14 7 17 -3 3
-9 2 -12 -2z"/>
<path d="M8792 4380 c0 -14 2 -19 5 -12 2 6 2 18 0 25 -3 6 -5 1 -5 -13z"/>
<path d="M7387 4333 c-15 -31 -26 -58 -23 -60 2 -2 16 21 31 52 35 74 28 80
-8 8z"/>
<path d="M2591 4195 c-204 -102 -376 -185 -381 -185 -16 0 -12 -19 17 -71 28
-52 34 -54 93 -24 73 36 266 138 345 182 50 27 154 83 233 123 78 40 142 77
142 83 0 21 -43 77 -59 77 -10 0 -185 -83 -390 -185z"/>
<path d="M6345 4340 c-27 -30 -12 -34 15 -5 13 14 19 25 13 25 -5 0 -18 -9
-28 -20z"/>
<path d="M6185 4320 c-3 -5 -2 -10 4 -10 5 0 13 5 16 10 3 6 2 10 -4 10 -5 0
-13 -4 -16 -10z"/>
<path d="M6100 4258 c-36 -28 -78 -60 -95 -70 -16 -11 -23 -18 -14 -15 24 8
179 119 179 129 0 12 1 12 -70 -44z"/>
<path d="M8761 4294 c0 -11 3 -14 6 -6 3 7 2 16 -1 19 -3 4 -6 -2 -5 -13z"/>
<path d="M3351 4270 c14 -31 19 -36 19 -24 0 6 -7 19 -16 30 -14 18 -14 18 -3
-6z"/>
<path d="M6274 4269 c-10 -12 -41 -39 -67 -60 -27 -22 -45 -39 -40 -39 17 0
153 119 137 120 -6 0 -19 -10 -30 -21z"/>
<path d="M2775 4134 c-154 -79 -309 -158 -345 -175 -36 -18 -86 -45 -112 -61
l-47 -29 17 -29 c12 -21 25 -30 42 -30 19 0 22 -2 10 -10 -12 -8 -11 -16 8
-56 21 -43 24 -45 41 -30 10 9 21 16 25 16 7 0 42 15 164 71 35 16 66 29 68
29 3 0 24 8 47 19 23 10 65 29 92 41 28 13 84 38 125 58 41 19 120 55 175 78
55 24 99 49 97 55 -1 6 -12 25 -25 42 -12 18 -22 33 -23 35 -2 5 -70 -21 -134
-50 -36 -16 -81 -37 -100 -45 -73 -32 -117 -52 -171 -77 -31 -14 -60 -26 -65
-26 -9 0 102 56 221 110 99 45 208 100 219 111 9 8 -33 101 -44 98 -3 -1 -131
-66 -285 -145z m-140 -194 c-27 -12 -43 -12 -25 0 8 5 22 9 30 9 10 0 8 -3 -5
-9z"/>
<path d="M8751 4254 c0 -11 3 -14 6 -6 3 7 2 16 -1 19 -3 4 -6 -2 -5 -13z"/>
<path d="M7330 4229 c-6 -13 -19 -39 -30 -56 -11 -18 -16 -33 -12 -33 10 0 64
101 58 107 -3 3 -10 -5 -16 -18z"/>
<path d="M6309 4203 l-24 -26 33 23 c33 25 38 30 24 30 -5 0 -19 -12 -33 -27z"/>
<path d="M3386 4207 c3 -10 9 -15 12 -12 3 3 0 11 -7 18 -10 9 -11 8 -5 -6z"/>
<path d="M1945 4180 c-4 -7 3 -8 22 -4 38 9 42 14 10 14 -14 0 -29 -5 -32 -10z"/>
<path d="M5833 4150 c-13 -5 -23 -11 -23 -14 0 -7 40 6 46 15 6 10 6 10 -23
-1z"/>
<path d="M5940 4150 c-9 -6 -10 -10 -3 -10 6 0 15 5 18 10 8 12 4 12 -15 0z"/>
<path d="M6101 4130 c-24 -17 -40 -30 -35 -30 5 0 29 14 54 30 25 16 41 30 35
30 -5 0 -30 -14 -54 -30z"/>
<path d="M7645 4120 c-8 -16 -15 -34 -15 -40 0 -6 -10 -24 -22 -40 -21 -29
-21 -30 -3 -50 11 -12 46 -37 79 -57 70 -42 305 -197 323 -213 7 -5 24 -15 38
-22 14 -6 25 -15 25 -20 0 -4 4 -8 9 -8 12 0 193 -120 203 -135 16 -22 -4 -15
-43 16 -44 35 -156 109 -399 264 -78 50 -168 107 -201 129 l-60 38 -17 -23
c-38 -53 -37 -54 66 -119 53 -34 153 -96 222 -138 69 -43 166 -104 215 -138
50 -33 109 -71 133 -84 23 -13 42 -27 42 -32 0 -16 -20 -8 -62 25 -42 31 -180
120 -386 248 -128 80 -137 86 -211 131 l-60 37 -27 -32 -26 -31 28 -23 c16
-13 52 -37 79 -54 28 -16 88 -54 135 -84 47 -30 121 -75 165 -101 44 -26 91
-55 104 -65 40 -31 9 -21 -45 14 -28 19 -57 36 -65 40 -8 4 -31 17 -51 29 -20
13 -69 43 -110 67 -70 42 -153 94 -210 133 -15 10 -33 18 -40 18 -18 -1 -121
-141 -111 -151 4 -4 43 -22 85 -39 80 -32 280 -118 380 -164 31 -14 59 -26 62
-26 3 0 34 -14 68 -31 81 -39 198 -89 209 -89 5 0 21 19 36 43 16 23 34 48 40
55 7 7 13 17 13 22 0 5 28 48 63 95 78 107 121 174 116 179 -40 37 -727 456
-748 456 -6 0 -17 -13 -26 -30z m190 -188 c-3 -3 -11 0 -18 7 -9 10 -8 11 6 5
10 -3 15 -9 12 -12z m100 -62 c3 -6 -1 -7 -9 -4 -18 7 -21 14 -7 14 6 0 13 -4
16 -10z m183 -108 c28 -19 52 -36 52 -39 0 -6 -66 34 -100 60 -35 27 -15 18
48 -21z m97 -70 c-3 -3 -11 0 -18 7 -9 10 -8 11 6 5 10 -3 15 -9 12 -12z m-97
-282 c28 -18 52 -33 52 -35 0 -9 -37 10 -82 42 -26 18 -52 33 -58 33 -5 0 -10
5 -10 11 0 7 9 5 23 -5 12 -8 46 -29 75 -46z"/>
<path d="M7231 4064 c-24 -36 -41 -68 -37 -71 3 -3 6 -1 6 5 0 6 6 17 13 24
22 23 70 98 66 103 -3 2 -24 -25 -48 -61z"/>
<path d="M5725 4099 c-22 -15 -24 -19 -9 -14 18 5 22 0 28 -27 5 -26 9 -30 16
-18 6 9 6 16 0 18 -16 6 -11 40 8 51 13 8 14 10 2 11 -8 0 -28 -9 -45 -21z"/>
<path d="M6030 4080 c-9 -6 -10 -10 -3 -10 6 0 15 5 18 10 8 12 4 12 -15 0z"/>
<path d="M6150 4080 c-9 -6 -10 -10 -3 -10 6 0 15 5 18 10 8 12 4 12 -15 0z"/>
<path d="M5668 4073 c7 -3 16 -2 19 1 4 3 -2 6 -13 5 -11 0 -14 -3 -6 -6z"/>
<path d="M3490 4051 c0 -6 4 -13 10 -16 6 -3 7 1 4 9 -7 18 -14 21 -14 7z"/>
<path d="M5965 4045 c-25 -12 -26 -14 -5 -9 14 4 29 10 35 15 12 12 5 11 -30
-6z"/>
<path d="M6077 4031 c-59 -35 -69 -44 -31 -31 25 9 98 61 84 59 -3 0 -26 -13
-53 -28z"/>
<path d="M4883 4043 c9 -2 23 -2 30 0 6 3 -1 5 -18 5 -16 0 -22 -2 -12 -5z"/>
<path d="M5553 4043 c9 -2 23 -2 30 0 6 3 -1 5 -18 5 -16 0 -22 -2 -12 -5z"/>
<path d="M5233 4033 c15 -2 39 -2 55 0 15 2 2 4 -28 4 -30 0 -43 -2 -27 -4z"/>
<path d="M5370 4030 c0 -9 118 -3 129 6 2 2 -26 4 -62 4 -37 0 -67 -4 -67 -10z"/>
<path d="M5588 4003 c7 -3 16 -2 19 1 4 3 -2 6 -13 5 -11 0 -14 -3 -6 -6z"/>
<path d="M5771 3973 c-1 -24 -6 -33 -23 -36 -20 -4 -19 -4 5 -6 20 -1 27 -6
27 -22 0 -19 4 -21 37 -16 20 4 41 12 47 18 8 9 6 10 -9 4 -54 -21 -65 -19
-66 11 -1 16 -5 40 -9 54 -8 24 -8 24 -9 -7z"/>
<path d="M5208 3983 c6 -2 18 -2 25 0 6 3 1 5 -13 5 -14 0 -19 -2 -12 -5z"/>
<path d="M5825 3975 c-25 -12 -26 -14 -5 -9 14 4 29 10 35 15 12 12 5 11 -30
-6z"/>
<path d="M8791 3983 c-1 -6 -4 -20 -7 -30 -5 -17 -5 -17 6 0 6 10 9 23 6 30
-3 9 -5 9 -5 0z"/>
<path d="M3025 3935 c-185 -57 -262 -85 -430 -157 -168 -71 -205 -90 -205
-102 0 -11 60 -116 66 -116 3 0 28 15 57 33 60 39 254 147 263 147 3 0 -43
-33 -102 -73 -60 -40 -129 -89 -154 -108 l-45 -34 63 -95 c90 -134 80 -128
144 -93 144 80 190 107 413 238 283 167 315 187 315 200 -1 6 -12 24 -25 40
l-25 30 -57 -31 c-32 -16 -119 -64 -193 -106 -74 -41 -171 -94 -215 -118 -44
-24 -133 -75 -198 -112 -66 -38 -122 -67 -125 -64 -14 15 125 131 378 316 201
146 290 219 290 236 0 25 -69 15 -215 -31z"/>
<path d="M3320 3973 c0 -10 31 -54 56 -80 7 -7 14 -18 17 -25 2 -7 7 -11 10
-8 3 3 -14 32 -39 64 -24 33 -44 55 -44 49z"/>
<path d="M5398 3973 c12 -2 32 -2 45 0 12 2 2 4 -23 4 -25 0 -35 -2 -22 -4z"/>
<path d="M2116 3954 c-11 -8 -16 -14 -10 -14 13 0 39 18 34 24 -3 2 -14 -2
-24 -10z"/>
<path d="M5885 3930 c-3 -6 1 -7 9 -4 18 7 21 14 7 14 -6 0 -13 -4 -16 -10z"/>
<path d="M8610 3919 c0 -4 19 -13 43 -19 23 -7 52 -18 65 -26 23 -15 42 -11
42 7 0 6 -4 8 -8 5 -4 -3 -38 6 -75 19 -37 13 -67 19 -67 14z"/>
<path d="M2035 3909 c-11 -16 -1 -19 13 -3 7 8 8 14 3 14 -5 0 -13 -5 -16 -11z"/>
<path d="M4998 3913 c7 -3 16 -2 19 1 4 3 -2 6 -13 5 -11 0 -14 -3 -6 -6z"/>
<path d="M5043 3903 c9 -2 25 -2 35 0 9 3 1 5 -18 5 -19 0 -27 -2 -17 -5z"/>
<path d="M5608 3903 c6 -2 18 -2 25 0 6 3 1 5 -13 5 -14 0 -19 -2 -12 -5z"/>
<path d="M5111 3896 c12 -10 60 -16 54 -6 -3 5 -18 10 -32 10 -15 0 -24 -2
-22 -4z"/>
<path d="M5380 3870 c0 -5 5 -10 10 -10 6 0 10 5 10 10 0 6 -4 10 -10 10 -5 0
-10 -4 -10 -10z"/>
<path d="M5428 3873 c12 -2 30 -2 40 0 9 3 -1 5 -23 4 -22 0 -30 -2 -17 -4z"/>
<path d="M3431 3821 c38 -58 200 -221 279 -283 41 -32 80 -62 86 -67 46 -37
114 -81 114 -74 -1 4 -30 28 -66 53 -118 81 -270 220 -405 370 l-31 35 23 -34z"/>
<path d="M5648 3843 c7 -3 16 -2 19 1 4 3 -2 6 -13 5 -11 0 -14 -3 -6 -6z"/>
<path d="M4978 3833 c7 -3 16 -2 19 1 4 3 -2 6 -13 5 -11 0 -14 -3 -6 -6z"/>
<path d="M5583 3833 c9 -2 25 -2 35 0 9 3 1 5 -18 5 -19 0 -27 -2 -17 -5z"/>
<path d="M5528 3823 c6 -2 18 -2 25 0 6 3 1 5 -13 5 -14 0 -19 -2 -12 -5z"/>
<path d="M5413 3803 c15 -2 37 -2 50 0 12 2 0 4 -28 4 -27 0 -38 -2 -22 -4z"/>
<path d="M5195 3795 c23 -8 135 -11 135 -3 0 4 -33 8 -72 7 -40 0 -68 -2 -63
-4z"/>
<path d="M3720 3776 c0 -2 8 -10 18 -17 15 -13 16 -12 3 4 -13 16 -21 21 -21
13z"/>
<path d="M7040 3694 c-30 -31 -46 -50 -35 -43 20 12 101 99 93 99 -2 0 -28
-25 -58 -56z"/>
<path d="M8448 3648 c-14 -21 -13 -25 6 -45 12 -12 48 -37 80 -57 62 -36 78
-36 89 3 6 25 2 30 -63 72 -77 51 -94 55 -112 27z"/>
<path d="M2271 3608 c-41 -31 -50 -43 -40 -50 11 -7 9 -8 -4 -4 -23 7 -51 -19
-43 -40 7 -17 4 -19 104 48 39 27 72 53 72 58 0 5 -8 14 -18 19 -14 7 -29 1
-71 -31z"/>
<path d="M6850 3630 c-9 -6 -10 -10 -3 -10 6 0 15 5 18 10 8 12 4 12 -15 0z"/>
<path d="M3942 3573 c18 -16 52 -46 76 -68 46 -42 62 -52 62 -38 -1 9 -155
133 -165 133 -4 0 8 -12 27 -27z"/>
<path d="M6765 3564 c-18 -16 -22 -22 -9 -15 18 9 53 42 43 41 -2 -1 -17 -12
-34 -26z"/>
<path d="M3874 3525 c11 -8 24 -15 30 -15 5 0 1 7 -10 15 -10 8 -23 14 -29 14
-5 0 -1 -6 9 -14z"/>
<path d="M6666 3490 c-58 -48 -52 -54 8 -8 57 44 62 48 51 48 -6 -1 -32 -19
-59 -40z"/>
<path d="M3960 3460 c30 -24 59 -50 63 -57 9 -15 27 -18 27 -4 0 10 -102 89
-127 98 -10 4 7 -13 37 -37z"/>
<path d="M2385 3464 c-18 -16 -22 -22 -9 -15 18 9 53 42 43 41 -2 -1 -17 -12
-34 -26z"/>
<path d="M2328 3423 c-10 -2 -18 -9 -18 -14 0 -5 -7 -9 -15 -9 -8 0 -15 -4
-15 -10 0 -16 12 -11 45 15 17 14 28 24 25 24 -3 -1 -13 -3 -22 -6z"/>
<path d="M6570 3420 c-9 -6 -10 -10 -3 -10 6 0 15 5 18 10 8 12 4 12 -15 0z"/>
<path d="M3883 3318 c-22 -35 -79 -130 -128 -213 -102 -174 -317 -522 -357
-579 -15 -21 -28 -42 -28 -47 0 -4 22 -25 48 -48 l49 -40 44 62 c25 34 69 105
99 157 29 52 86 151 125 220 40 69 105 190 145 270 41 80 84 162 97 182 13 21
23 43 23 50 0 12 -52 48 -70 48 -4 0 -26 -28 -47 -62z"/>
<path d="M6615 3350 c-3 -6 1 -7 9 -4 18 7 21 14 7 14 -6 0 -13 -4 -16 -10z"/>
<path d="M6346 3285 c-11 -8 -15 -15 -10 -15 6 0 19 7 30 15 10 8 15 14 9 14
-5 0 -19 -6 -29 -14z"/>
<path d="M4616 3221 c9 -8 77 -28 124 -37 35 -7 -47 24 -94 35 -21 5 -34 6
-30 2z"/>
<path d="M6110 3180 c-21 -7 -21 -8 -5 -9 11 0 27 4 35 9 18 11 5 11 -30 0z"/>
<path d="M6345 3180 c-13 -6 -15 -9 -5 -9 8 0 22 4 30 9 18 12 2 12 -25 0z"/>
<path d="M4538 3173 c7 -3 16 -2 19 1 4 3 -2 6 -13 5 -11 0 -14 -3 -6 -6z"/>
<path d="M4778 3173 c6 -2 18 -2 25 0 6 3 1 5 -13 5 -14 0 -19 -2 -12 -5z"/>
<path d="M4174 3147 c-11 -12 -51 -67 -87 -122 -37 -55 -106 -145 -155 -200
-89 -101 -284 -351 -334 -428 -57 -86 -18 -92 60 -9 52 55 249 312 307 400 15
23 30 40 32 38 3 -3 -5 -31 -17 -63 -12 -32 -46 -128 -76 -213 -30 -85 -67
-189 -83 -230 l-29 -75 29 -20 c15 -11 34 -30 41 -43 12 -23 12 -23 35 20 34
66 55 122 195 533 71 209 128 390 126 404 -4 33 -19 35 -44 8z"/>
<path d="M6275 3145 c-25 -12 -26 -14 -5 -9 14 4 29 10 35 15 12 12 5 11 -30
-6z"/>
<path d="M4628 3143 c7 -3 16 -2 19 1 4 3 -2 6 -13 5 -11 0 -14 -3 -6 -6z"/>
<path d="M4930 3139 c60 -10 108 -9 55 2 -22 4 -53 8 -70 7 -22 0 -19 -3 15
-9z"/>
<path d="M6018 3143 c7 -3 16 -2 19 1 4 3 -2 6 -13 5 -11 0 -14 -3 -6 -6z"/>
<path d="M4728 3113 c7 -3 16 -2 19 1 4 3 -2 6 -13 5 -11 0 -14 -3 -6 -6z"/>
<path d="M4778 3103 c7 -3 16 -2 19 1 4 3 -2 6 -13 5 -11 0 -14 -3 -6 -6z"/>
<path d="M5853 3103 c9 -2 23 -2 30 0 6 3 -1 5 -18 5 -16 0 -22 -2 -12 -5z"/>
<path d="M6167 3104 c-3 -4 -30 -15 -59 -25 -35 -13 -41 -17 -19 -13 40 7 123
43 100 44 -9 0 -18 -3 -22 -6z"/>
<path d="M4518 3073 c7 -3 16 -2 19 1 4 3 -2 6 -13 5 -11 0 -14 -3 -6 -6z"/>
<path d="M4893 3073 c9 -2 25 -2 35 0 9 3 1 5 -18 5 -19 0 -27 -2 -17 -5z"/>
<path d="M5713 3073 c9 -2 23 -2 30 0 6 3 -1 5 -18 5 -16 0 -22 -2 -12 -5z"/>
<path d="M4978 3063 c6 -2 18 -2 25 0 6 3 1 5 -13 5 -14 0 -19 -2 -12 -5z"/>
<path d="M2700 3053 c0 -5 -18 -28 -40 -51 -23 -23 -37 -42 -32 -42 4 0 21 14
38 31 16 17 37 34 47 38 17 6 17 8 3 20 -9 8 -16 9 -16 4z"/>
<path d="M4405 3040 c3 -5 16 -10 28 -9 21 0 21 1 2 9 -28 12 -37 12 -30 0z"/>
<path d="M4598 3043 c7 -3 16 -2 19 1 4 3 -2 6 -13 5 -11 0 -14 -3 -6 -6z"/>
<path d="M5098 3043 c12 -2 32 -2 45 0 12 2 2 4 -23 4 -25 0 -35 -2 -22 -4z"/>
<path d="M5558 3043 c7 -3 16 -2 19 1 4 3 -2 6 -13 5 -11 0 -14 -3 -6 -6z"/>
<path d="M6018 3043 c7 -3 16 -2 19 1 4 3 -2 6 -13 5 -11 0 -14 -3 -6 -6z"/>
<path d="M4638 3033 c6 -2 18 -2 25 0 6 3 1 5 -13 5 -14 0 -19 -2 -12 -5z"/>
<path d="M5233 3033 c26 -2 67 -2 90 0 23 2 2 3 -48 3 -49 0 -68 -1 -42 -3z"/>
<path d="M5968 3033 c6 -2 18 -2 25 0 6 3 1 5 -13 5 -14 0 -19 -2 -12 -5z"/>
<path d="M8085 3020 c3 -5 8 -10 11 -10 2 0 4 5 4 10 0 6 -5 10 -11 10 -5 0
-7 -4 -4 -10z"/>
<path d="M4705 3010 c19 -8 73 -14 64 -6 -2 2 -22 6 -44 9 -28 5 -34 4 -20 -3z"/>
<path d="M5835 3003 c-38 -8 -106 -21 -150 -28 l-80 -14 70 5 c63 5 149 21
230 44 47 13 7 9 -70 -7z"/>
<path d="M8110 3006 c0 -9 5 -16 10 -16 6 0 10 4 10 9 0 6 -4 13 -10 16 -5 3
-10 -1 -10 -9z"/>
<path d="M2760 3003 c0 -10 90 -110 90 -101 0 4 -20 30 -45 58 -25 28 -45 47
-45 43z"/>
<path d="M4498 3003 c7 -3 16 -2 19 1 4 3 -2 6 -13 5 -11 0 -14 -3 -6 -6z"/>
<path d="M4788 2993 c6 -2 18 -2 25 0 6 3 1 5 -13 5 -14 0 -19 -2 -12 -5z"/>
<path d="M7997 2978 c-8 -13 -29 -38 -47 -57 -17 -18 -29 -35 -27 -37 4 -4 88
82 101 104 13 22 -11 13 -27 -10z"/>
<path d="M4588 2973 c7 -3 16 -2 19 1 4 3 -2 6 -13 5 -11 0 -14 -3 -6 -6z"/>
<path d="M4885 2970 c40 -9 112 -13 104 -6 -2 2 -35 6 -74 9 -54 4 -61 4 -30
-3z"/>
<path d="M4628 2963 c7 -3 16 -2 19 1 4 3 -2 6 -13 5 -11 0 -14 -3 -6 -6z"/>
<path d="M5958 2963 c6 -2 18 -2 25 0 6 3 1 5 -13 5 -14 0 -19 -2 -12 -5z"/>
<path d="M5029 2947 c5 -5 28 -7 52 -5 l44 3 -52 5 c-29 3 -48 1 -44 -3z"/>
<path d="M5840 2938 c-47 -11 -125 -25 -175 -33 -49 -7 -74 -13 -55 -14 62 -1
286 40 319 59 21 12 12 11 -89 -12z"/>
<path d="M4678 2943 c7 -3 16 -2 19 1 4 3 -2 6 -13 5 -11 0 -14 -3 -6 -6z"/>
<path d="M4718 2933 c6 -2 18 -2 25 0 6 3 1 5 -13 5 -14 0 -19 -2 -12 -5z"/>
<path d="M5131 2936 c2 -2 65 -6 139 -9 84 -3 118 -2 90 3 -44 8 -237 14 -229
6z"/>
<path d="M4770 2926 c0 -2 7 -7 16 -10 8 -3 12 -2 9 4 -6 10 -25 14 -25 6z"/>
<path d="M8090 2921 c0 -6 4 -13 10 -16 6 -3 7 1 4 9 -7 18 -14 21 -14 7z"/>
<path d="M4855 2899 c22 -4 54 -8 70 -7 22 0 19 3 -15 9 -60 10 -108 9 -55 -2z"/>
<path d="M2880 2867 c8 -7 21 -19 29 -27 11 -13 12 -12 3 6 -7 12 -19 24 -29
28 -16 5 -16 4 -3 -7z"/>
<path d="M4993 2873 c9 -2 25 -2 35 0 9 3 1 5 -18 5 -19 0 -27 -2 -17 -5z"/>
<path d="M7890 2859 c0 -5 5 -7 10 -4 6 3 10 8 10 11 0 2 -4 4 -10 4 -5 0 -10
-5 -10 -11z"/>
<path d="M5634 2817 c-12 -7 -12 -12 0 -35 15 -29 73 -88 80 -81 12 14 54 87
60 105 6 19 3 20 -60 20 -36 -1 -72 -5 -80 -9z"/>
<path d="M3036 2717 c4 -10 16 -22 28 -29 18 -9 19 -8 6 3 -8 8 -20 21 -27 29
-11 13 -12 13 -7 -3z"/>
<path d="M7664 2678 l-19 -23 23 19 c12 11 22 21 22 23 0 8 -8 2 -26 -19z"/>
<path d="M3083 2663 c4 -6 -7 -25 -23 -44 -40 -47 -38 -68 2 -24 18 19 39 35
45 35 20 0 15 18 -8 31 -12 6 -19 7 -16 2z"/>
<path d="M7677 2636 c-10 -27 6 -41 31 -27 11 6 28 8 36 5 12 -4 16 0 16 16 0
17 -3 20 -12 12 -27 -21 -56 -24 -60 -5 -3 17 -4 17 -11 -1z"/>
<path d="M7785 2609 c-4 -6 -5 -12 -2 -15 2 -3 7 2 10 11 7 17 1 20 -8 4z"/>
<path d="M7495 2534 c-18 -16 -22 -22 -9 -15 18 9 53 42 43 41 -2 -1 -17 -12
-34 -26z"/>
<path d="M3307 2519 c7 -7 15 -10 18 -7 3 3 -2 9 -12 12 -14 6 -15 5 -6 -5z"/>
<path d="M7430 2490 c-9 -6 -10 -10 -3 -10 6 0 15 5 18 10 8 12 4 12 -15 0z"/>
<path d="M3258 2483 c7 -3 16 -2 19 1 4 3 -2 6 -13 5 -11 0 -14 -3 -6 -6z"/>
<path d="M7330 2410 c-18 -12 -2 -12 25 0 13 6 15 9 5 9 -8 0 -22 -4 -30 -9z"/>
<path d="M3530 2230 c-19 -27 -38 -50 -42 -50 -15 0 -8 -21 10 -27 9 -4 26
-15 36 -25 11 -10 25 -18 30 -17 6 0 34 28 63 62 l52 62 -51 23 c-28 12 -53
22 -57 22 -3 0 -22 -23 -41 -50z"/>
<path d="M6926 2171 c-4 -5 3 -7 14 -4 23 6 26 13 6 13 -8 0 -17 -4 -20 -9z"/>
<path d="M7051 2106 c17 -25 35 -46 41 -46 5 0 -5 18 -22 40 -45 56 -56 60
-19 6z"/>
<path d="M6760 2106 c0 -2 7 -7 16 -10 8 -3 12 -2 9 4 -6 10 -25 14 -25 6z"/>
<path d="M6820 2096 c0 -2 8 -10 18 -17 15 -13 16 -12 3 4 -13 16 -21 21 -21
13z"/>
<path d="M6705 2070 c3 -5 11 -10 16 -10 6 0 7 5 4 10 -3 6 -11 10 -16 10 -6
0 -7 -4 -4 -10z"/>
<path d="M6666 2053 c-4 -5 -11 -8 -14 -9 -4 0 -14 -3 -22 -7 -63 -25 -368
-122 -420 -134 -164 -36 -357 -64 -540 -76 -25 -2 -2 -4 50 -5 90 -1 124 2
295 28 78 11 174 33 250 55 90 27 300 95 320 105 11 5 31 12 45 16 28 8 70 34
54 34 -6 0 -14 -3 -18 -7z"/>
<path d="M4308 1963 c7 -3 16 -2 19 1 4 3 -2 6 -13 5 -11 0 -14 -3 -6 -6z"/>
<path d="M6502 1894 c3 -17 21 -21 26 -6 1 5 -4 12 -13 16 -11 4 -15 1 -13
-10z"/>
<path d="M4538 1893 c7 -3 16 -2 19 1 4 3 -2 6 -13 5 -11 0 -14 -3 -6 -6z"/>
<path d="M4250 1870 c0 -5 5 -10 11 -10 5 0 7 5 4 10 -3 6 -8 10 -11 10 -2 0
-4 -4 -4 -10z"/>
<path d="M4850 1840 c0 -5 10 -10 23 -10 18 0 19 2 7 10 -19 13 -30 13 -30 0z"/>
<path d="M4913 1823 c9 -2 25 -2 35 0 9 3 1 5 -18 5 -19 0 -27 -2 -17 -5z"/>
<path d="M6170 1790 c13 -23 20 -26 20 -6 0 8 -7 16 -15 20 -13 4 -14 2 -5
-14z"/>
<path d="M5260 1748 c0 -36 4 -35 14 5 4 16 2 27 -4 27 -5 0 -10 -14 -10 -32z"/>
<path d="M5320 1764 c0 -8 5 -12 10 -9 6 4 8 11 5 16 -9 14 -15 11 -15 -7z"/>
<path d="M5392 1740 c0 -14 2 -19 5 -12 2 6 2 18 0 25 -3 6 -5 1 -5 -13z"/>
<path d="M5337 1733 c-12 -11 -8 -23 8 -23 8 0 15 7 15 15 0 16 -12 20 -23 8z"/>
<path d="M8510 1937 c0 -2 21 -19 46 -37 26 -18 45 -28 43 -21 -4 11 -89 67
-89 58z"/>
<path d="M8435 1878 c-22 -22 -68 -65 -103 -95 -53 -48 -64 -54 -78 -42 -13
10 -17 10 -24 -1 -4 -7 -6 -19 -3 -27 3 -7 -2 -29 -11 -48 -22 -45 -14 -56 37
-53 27 1 71 -9 122 -29 57 -21 87 -27 100 -22 34 15 220 165 223 180 1 8 -12
24 -30 35 -18 12 -65 42 -105 68 -40 25 -76 53 -80 60 -6 12 -17 6 -48 -26z"/>
<path d="M8610 1866 c0 -2 24 -20 53 -40 47 -34 49 -34 17 -6 -35 32 -70 54
-70 46z"/>
</g>
</svg>
